<svg xmlns="http://www.w3.org/2000/svg" version="1.1" xmlns:xlink="http://www.w3.org/1999/xlink" xmlns:svgjs="http://svgjs.com/svgjs" width="100%" height="1024"><svg version="1.1" id="SvgjsSvg1000" xmlns="http://www.w3.org/2000/svg" xmlns:xlink="http://www.w3.org/1999/xlink" x="0px" y="0px" width="100%" viewBox="0 0 1024 1024" enable-background="new 0 0 1024 1024" xml:space="preserve">
<path fill="#FFFFFF" opacity="1.000000" stroke="none" d="
M901.000000,1.000000 
	C942.324280,1.000000 983.648499,1.000000 1024.979492,1.000000 
	C1024.986328,342.249176 1024.986328,683.498352 1024.986328,1025.000000 
	C772.306519,1025.000000 519.612976,1025.000000 266.557281,1024.667480 
	C269.414520,1017.960632 273.239197,1011.813904 275.739288,1005.168823 
	C283.098633,985.608093 292.563965,967.190002 304.248749,949.904297 
	C317.049866,930.967102 328.124573,911.240295 335.864563,889.558411 
	C340.540802,876.459045 346.036346,863.343140 353.299866,851.550415 
	C363.647491,834.750671 375.754211,819.009583 387.501556,803.105896 
	C394.750641,793.291870 402.175446,783.722595 404.483032,771.220947 
	C404.666321,771.170654 405.009186,771.004883 405.408813,771.013672 
	C407.094360,770.727722 408.487457,770.657471 409.649292,770.102783 
	C419.674377,765.316650 430.113556,765.539734 440.884155,766.560974 
	C447.495880,767.187805 454.274963,766.048889 461.435272,765.725098 
	C465.222046,765.879089 468.552460,766.010803 471.953552,766.475708 
	C479.063568,777.829041 497.801086,777.162354 503.436859,762.974121 
	C514.169128,757.655273 524.518616,752.388550 534.960083,747.310974 
	C544.344971,742.747192 553.809021,738.343750 563.280273,733.960510 
	C569.303833,731.172913 575.589539,728.900391 581.438171,725.795044 
	C607.658142,711.873657 627.885010,691.448547 646.308105,668.365540 
	C670.037659,638.633850 684.790039,605.270752 692.328796,568.377869 
	C694.050903,559.950195 693.227600,551.651855 690.262390,543.369751 
	C683.625610,524.832153 672.362244,509.267456 659.743530,494.576447 
	C651.629456,485.129791 644.007019,474.832123 634.332458,467.254425 
	C619.589417,455.706726 603.417358,445.935883 587.548462,435.890076 
	C577.270020,429.383179 566.663940,423.453796 558.983215,413.395508 
	C563.289368,408.715576 567.627808,404.440674 571.772156,399.985321 
	C574.772034,396.760376 577.702942,393.435303 580.317688,389.898438 
	C582.847900,386.476074 584.494568,382.334473 587.293274,379.188324 
	C598.557861,366.525146 610.349792,354.327209 621.494446,341.562347 
	C630.012756,331.805603 637.394897,321.040527 646.099304,311.466614 
	C658.660156,297.651093 671.149536,283.889923 681.080261,267.949463 
	C684.754150,262.052338 689.561096,256.861603 693.845947,251.344559 
	C704.852112,237.173264 717.207947,223.836121 726.592224,208.661514 
	C749.745117,171.222794 776.803162,136.985016 807.175049,105.317085 
	C826.072937,85.612839 845.664551,66.572380 865.014160,47.303715 
	C870.437927,41.902645 876.069580,36.707573 881.674805,31.492052 
	C888.376953,25.255766 895.204468,19.153702 901.879456,12.888839 
	C906.500427,8.551807 906.141479,4.715588 901.027832,1.695269 
	C900.990845,1.465459 901.000000,1.000000 901.000000,1.000000 
z"></path>
<path fill="#FFFFFF" opacity="1.000000" stroke="none" d="
M97.999985,1025.000000 
	C65.674286,1025.000000 33.348572,1025.000000 1.017141,1025.000000 
	C1.011427,683.754700 1.011427,342.509430 1.011427,1.000000 
	C225.025772,1.000000 449.051636,1.000000 673.357422,1.277434 
	C667.596741,5.995647 663.172607,11.740398 661.083740,18.898666 
	C660.479065,20.970768 661.838379,23.615940 662.224243,26.336021 
	C661.333618,28.030115 660.516052,29.386589 659.270874,30.804688 
	C655.554504,30.647154 652.234802,30.639484 648.983459,30.164186 
	C642.498169,29.216139 636.562073,30.168131 632.252930,35.425941 
	C627.967712,40.654621 623.521179,45.915524 620.246155,51.777287 
	C609.985229,70.142761 603.584900,90.070259 598.192139,110.298515 
	C594.660950,123.543999 591.671448,136.933868 588.354736,150.630508 
	C586.249084,156.250565 584.146973,161.469620 582.222046,166.753235 
	C575.920654,184.050247 569.597778,201.340332 563.456665,218.694489 
	C560.151184,228.035461 557.679932,237.695099 553.985413,246.869934 
	C546.978333,264.271149 539.432739,281.457672 531.975952,298.674957 
	C526.042419,312.375031 519.979187,326.020233 513.834045,339.626801 
	C510.556976,346.882996 507.255219,354.152557 503.464478,361.144928 
	C500.075500,367.396210 495.999908,373.275269 491.861725,379.251038 
	C482.943451,382.531067 478.718872,388.274597 479.089630,396.816650 
	C479.222809,399.884888 480.339874,402.910400 480.977783,406.061829 
	C480.947693,406.168213 481.014862,406.378967 480.568573,406.312683 
	C473.002655,405.618896 465.894226,404.742645 458.760834,404.420990 
	C447.475891,403.912140 436.021027,402.481201 424.917114,403.796356 
	C409.851471,405.580658 396.452179,413.166260 384.400543,421.986145 
	C372.365356,430.794037 361.135284,440.837738 350.303223,451.130005 
	C307.304108,491.986237 282.327728,541.109192 282.302917,601.522949 
	C282.292969,625.790039 284.874878,649.659973 292.179474,672.853333 
	C296.461700,686.450195 300.266663,700.226379 309.890900,711.547485 
	C322.925201,726.879761 337.236938,740.185120 357.048584,746.198059 
	C356.623291,746.970764 356.307251,747.468506 355.593445,747.970398 
	C352.952972,749.317993 349.992706,750.154175 348.612061,752.107056 
	C345.420685,756.621216 342.825623,761.591248 340.327454,766.547119 
	C339.017365,769.146057 338.781372,772.292053 337.441803,774.869568 
	C330.842010,787.568604 320.152466,796.206116 308.202637,803.455872 
	C296.400635,810.615845 284.581818,817.754639 272.629761,824.659302 
	C251.369629,836.941162 236.115540,855.481750 221.133804,874.191345 
	C210.228516,887.810181 200.600464,902.461121 189.540756,915.944763 
	C169.925095,939.859619 149.483047,963.095093 129.736099,986.904480 
	C120.942818,997.506836 113.153030,1008.923157 102.587898,1018.004639 
	C100.555740,1019.751343 99.504013,1022.638794 97.999985,1025.000000 
z"></path>
<path fill="#AEF0F3" opacity="1.000000" stroke="none" d="
M686.000000,1.000000 
	C744.687561,1.000000 803.375122,1.000000 862.385376,1.298901 
	C859.562866,4.542918 856.416870,7.487185 853.272644,10.433290 
	C846.761475,16.534060 840.297302,22.685959 833.725769,28.720898 
	C828.722839,33.315308 824.085815,38.559071 818.414185,42.128750 
	C799.176270,54.236958 779.416443,65.513290 760.114868,77.523582 
	C743.486389,87.870544 726.851074,98.337959 713.516357,113.025734 
	C706.161804,121.126579 698.658691,129.141968 691.930359,137.749191 
	C683.672119,148.313538 675.530334,159.067719 668.449890,170.432495 
	C655.462585,191.278534 644.331848,213.344376 630.497742,233.582779 
	C615.283691,255.839874 598.535339,277.143555 581.273987,297.879028 
	C563.879272,318.774719 544.864014,338.313446 526.898621,358.745575 
	C518.492798,368.305542 510.355286,378.105103 506.769714,390.929718 
	C502.831940,405.013977 503.610229,406.622040 518.311890,408.564331 
	C517.472229,409.596161 516.634827,410.872711 515.948730,410.795990 
	C508.958313,410.014130 501.992584,409.012024 495.132721,407.718811 
	C499.502625,398.385590 503.211243,389.091919 508.124878,380.486328 
	C520.407349,358.975250 532.461304,337.423309 541.166870,314.109436 
	C548.247864,295.146210 556.073730,276.461243 563.561035,257.649597 
	C567.357483,248.111084 572.413452,238.846466 574.590576,228.949966 
	C577.161865,217.261810 579.378052,205.580887 584.179504,194.579697 
	C592.749939,174.943069 600.960632,155.126907 610.253845,135.834824 
	C619.183960,117.296509 628.387695,98.771927 639.111389,81.244827 
	C653.311157,58.036472 669.082581,35.788425 684.236877,13.166739 
	C686.810791,9.324499 687.909363,5.418579 686.000000,1.000000 
M781.021973,40.056099 
	C780.446106,40.517696 779.870178,40.979294 779.294312,41.440887 
	C780.190369,41.958557 781.050964,42.844467 781.988098,42.934563 
	C788.414185,43.552315 794.851196,44.129097 801.297974,44.393219 
	C802.471802,44.441311 803.707031,42.993080 804.913879,42.235600 
	C804.692078,41.927586 804.470337,41.619572 804.248596,41.311558 
	C796.798584,40.889019 789.348572,40.466476 781.021973,40.056099 
z"></path>
<path fill="#AEF0F3" opacity="1.000000" stroke="none" d="
M252.000000,1025.000000 
	C206.645767,1025.000000 161.291550,1025.000000 115.621025,1024.701660 
	C118.227997,1021.703003 121.523521,1019.305237 124.007202,1016.247925 
	C132.689606,1005.560120 140.917206,994.501892 149.635864,983.844727 
	C169.072083,960.087097 188.700363,936.486572 208.592697,912.851318 
	C214.822220,910.601379 216.711624,905.052490 219.245819,900.085815 
	C219.637558,899.317993 219.152374,898.102783 219.167725,896.770020 
	C226.172180,887.946228 232.930496,879.317993 240.036072,870.985840 
	C246.387405,863.538269 252.717911,855.995239 259.773804,849.242676 
	C273.366211,836.234802 290.089264,827.731262 306.427368,818.872986 
	C325.732880,808.405884 342.080933,795.147583 352.319489,775.311768 
	C356.163147,789.974915 371.659607,794.760071 382.694519,784.874084 
	C383.614075,784.050293 384.916077,783.653442 386.013550,783.406006 
	C378.123871,794.210693 370.797546,805.128967 362.285767,815.027893 
	C344.888336,835.260254 333.281586,858.535400 324.016266,883.262695 
	C320.121429,893.657410 316.618469,904.408752 311.119812,913.950562 
	C298.281738,936.228394 284.382721,957.896484 270.835938,979.763550 
	C262.115936,993.839294 256.046844,1008.991943 252.000000,1025.000000 
z"></path>
<path fill="#86E9ED" opacity="1.000000" stroke="none" d="
M518.384399,408.180878 
	C503.610229,406.622040 502.831940,405.013977 506.769714,390.929718 
	C510.355286,378.105103 518.492798,368.305542 526.898621,358.745575 
	C544.864014,338.313446 563.879272,318.774719 581.273987,297.879028 
	C598.535339,277.143555 615.283691,255.839874 630.497742,233.582779 
	C644.331848,213.344376 655.462585,191.278534 668.449890,170.432495 
	C675.530334,159.067719 683.672119,148.313538 691.930359,137.749191 
	C698.658691,129.141968 706.161804,121.126579 713.516357,113.025734 
	C726.851074,98.337959 743.486389,87.870544 760.114868,77.523582 
	C779.416443,65.513290 799.176270,54.236958 818.414185,42.128750 
	C824.085815,38.559071 828.722839,33.315308 833.725769,28.720898 
	C840.297302,22.685959 846.761475,16.534060 853.272644,10.433290 
	C856.416870,7.487185 859.562866,4.542918 862.854004,1.298901 
	C868.688049,1.000000 874.376038,1.000000 880.677673,1.336397 
	C882.192932,4.790773 883.094604,7.908753 883.857910,11.327744 
	C881.976257,13.410707 880.220215,15.180307 878.491943,16.976667 
	C868.851624,26.996691 858.625977,36.527435 849.720459,47.163239 
	C836.264343,63.233814 821.188110,77.614761 805.822388,92.103256 
	C805.390198,92.488060 805.193665,92.764572 804.997681,93.017036 
	C804.998169,92.992989 805.042847,93.010483 804.667236,93.007309 
	C803.372559,93.329987 802.362122,93.506462 801.548462,94.004456 
	C792.350830,99.633972 782.862549,104.861000 774.087891,111.091141 
	C762.758423,119.135117 751.513428,127.440514 741.169983,136.682892 
	C733.685913,143.370224 727.393799,151.504150 721.169678,159.461884 
	C712.299561,170.802505 703.292480,182.135468 695.570496,194.253342 
	C680.856506,217.343597 667.564148,241.346283 652.663635,264.309631 
	C633.839233,293.320160 611.021912,319.250977 587.778015,344.789978 
	C574.938171,358.897614 562.302551,373.204346 550.004456,387.783722 
	C546.274597,392.205475 543.981018,397.838745 540.781189,402.962646 
	C540.366028,403.030670 540.199280,403.053131 539.577332,403.046326 
	C531.815247,402.425537 525.131775,404.184784 518.903198,408.312225 
	C518.724976,408.292969 518.384399,408.180878 518.384399,408.180878 
M687.716309,177.939163 
	C689.791382,176.651932 692.431885,175.806641 693.843506,174.000778 
	C699.865173,166.296936 705.457275,158.259369 711.328857,150.435669 
	C722.971863,134.921646 734.662048,119.442703 746.412415,104.009933 
	C749.062195,100.529778 752.038513,97.298210 754.864502,93.952202 
	C754.496582,93.494560 754.128601,93.036919 753.760620,92.579269 
	C751.978577,93.821365 749.850525,94.768967 748.489014,96.368950 
	C745.919006,99.389084 743.964478,102.927429 741.448364,105.999985 
	C728.850769,121.383499 715.827332,136.431885 703.627441,152.122055 
	C697.359009,160.183823 692.497375,169.339462 686.714844,178.111389 
	C686.809875,178.073853 686.904968,178.036316 687.716309,177.939163 
M544.755676,363.996307 
	C547.963196,362.368439 552.174255,361.535095 554.202576,358.973511 
	C562.452820,348.554291 570.033936,337.605133 578.727661,325.661713 
	C573.356445,326.629150 569.646851,327.891479 565.971313,327.799133 
	C561.961426,327.698334 560.554321,329.739868 559.051880,332.767578 
	C554.998474,340.936188 550.628235,348.947113 546.521912,357.090271 
	C545.425598,359.264374 544.825500,361.688751 543.715515,364.101807 
	C543.811157,364.068665 543.906799,364.035553 544.755676,363.996307 
M685.516907,180.405457 
	C685.516907,180.405457 685.582336,180.516876 685.516907,180.405457 
z"></path>
<path fill="#5EE1E7" opacity="1.000000" stroke="none" d="
M685.550049,1.000000 
	C687.909363,5.418579 686.810791,9.324499 684.236877,13.166739 
	C669.082581,35.788425 653.311157,58.036472 639.111389,81.244827 
	C628.387695,98.771927 619.183960,117.296509 610.253845,135.834824 
	C600.960632,155.126907 592.749939,174.943069 584.179504,194.579697 
	C579.378052,205.580887 577.161865,217.261810 574.590576,228.949966 
	C572.413452,238.846466 567.357483,248.111084 563.561035,257.649597 
	C556.073730,276.461243 548.247864,295.146210 541.166870,314.109436 
	C532.461304,337.423309 520.407349,358.975250 508.124878,380.486328 
	C503.211243,389.091919 499.502625,398.385590 495.007996,408.001526 
	C493.492615,408.924957 492.138519,409.634949 490.951447,409.420593 
	C487.611115,408.817200 484.339508,407.833496 481.009827,406.845581 
	C480.978821,406.691406 481.014862,406.378967 481.014862,406.378967 
	C481.014862,406.378967 480.947693,406.168213 481.269775,405.842896 
	C482.295380,403.177582 482.793182,400.750305 483.741577,398.514099 
	C486.472687,392.074280 489.385681,385.711548 492.227264,379.318542 
	C495.999908,373.275269 500.075500,367.396210 503.464478,361.144928 
	C507.255219,354.152557 510.556976,346.882996 513.834045,339.626801 
	C519.979187,326.020233 526.042419,312.375031 531.975952,298.674957 
	C539.432739,281.457672 546.978333,264.271149 553.985413,246.869934 
	C557.679932,237.695099 560.151184,228.035461 563.456665,218.694489 
	C569.597778,201.340332 575.920654,184.050247 582.222046,166.753235 
	C584.146973,161.469620 586.249084,156.250565 588.653076,150.492294 
	C589.734863,148.876678 590.547974,147.826202 591.114929,146.656418 
	C599.724182,128.891342 607.714233,110.793541 617.087280,93.442444 
	C623.588135,81.408157 631.840332,70.299614 639.576050,58.958923 
	C646.084290,49.417744 652.976318,40.138325 659.698486,30.743053 
	C660.516052,29.386589 661.333618,28.030115 662.492554,26.156342 
	C667.556030,17.426029 672.278015,9.213016 677.000000,1.000000 
	C679.700012,1.000000 682.400024,1.000000 685.550049,1.000000 
z"></path>
<path fill="#5EE1E7" opacity="1.000000" stroke="none" d="
M352.050537,775.091003 
	C342.080933,795.147583 325.732880,808.405884 306.427368,818.872986 
	C290.089264,827.731262 273.366211,836.234802 259.773804,849.242676 
	C252.717911,855.995239 246.387405,863.538269 240.036072,870.985840 
	C232.930496,879.317993 226.172180,887.946228 218.992462,897.052429 
	C215.231567,902.713562 211.740967,907.767761 208.250366,912.822021 
	C188.700363,936.486572 169.072083,960.087097 149.635864,983.844727 
	C140.917206,994.501892 132.689606,1005.560120 124.007202,1016.247925 
	C121.523521,1019.305237 118.227997,1021.703003 115.152367,1024.701660 
	C109.645073,1025.000000 104.290138,1025.000000 98.467590,1025.000000 
	C99.504013,1022.638794 100.555740,1019.751343 102.587898,1018.004639 
	C113.153030,1008.923157 120.942818,997.506836 129.736099,986.904480 
	C149.483047,963.095093 169.925095,939.859619 189.540756,915.944763 
	C200.600464,902.461121 210.228516,887.810181 221.133804,874.191345 
	C236.115540,855.481750 251.369629,836.941162 272.629761,824.659302 
	C284.581818,817.754639 296.400635,810.615845 308.202637,803.455872 
	C320.152466,796.206116 330.842010,787.568604 337.441803,774.869568 
	C338.781372,772.292053 339.017365,769.146057 340.327454,766.547119 
	C342.825623,761.591248 345.420685,756.621216 348.612061,752.107056 
	C349.992706,750.154175 352.952972,749.317993 355.785889,748.247070 
	C362.817841,753.234192 363.735291,756.103638 360.699371,763.153076 
	C359.248108,765.513428 358.103271,767.720215 356.630585,769.985962 
	C354.885345,771.726929 353.467957,773.408936 352.050537,775.091003 
z"></path>
<path fill="#5EE1E7" opacity="1.000000" stroke="none" d="
M252.464645,1025.000000 
	C256.046844,1008.991943 262.115936,993.839294 270.835938,979.763550 
	C284.382721,957.896484 298.281738,936.228394 311.119812,913.950562 
	C316.618469,904.408752 320.121429,893.657410 324.016266,883.262695 
	C333.281586,858.535400 344.888336,835.260254 362.285767,815.027893 
	C370.797546,805.128967 378.123871,794.210693 386.001709,783.393250 
	C386.016602,783.032715 386.033539,783.013550 386.330475,782.846191 
	C388.822815,778.104004 391.018250,773.529236 393.584045,769.020264 
	C397.402832,769.814514 400.851318,770.542847 404.299774,771.271179 
	C402.175446,783.722595 394.750641,793.291870 387.501556,803.105896 
	C375.754211,819.009583 363.647491,834.750671 353.299866,851.550415 
	C346.036346,863.343140 340.540802,876.459045 335.864563,889.558411 
	C328.124573,911.240295 317.049866,930.967102 304.248749,949.904297 
	C292.563965,967.190002 283.098633,985.608093 275.739288,1005.168823 
	C273.239197,1011.813904 269.414520,1017.960632 266.097595,1024.667480 
	C261.643097,1025.000000 257.286194,1025.000000 252.464645,1025.000000 
z"></path>
<path fill="#AEF0F3" opacity="1.000000" stroke="none" d="
M676.625000,1.000000 
	C672.278015,9.213016 667.556030,17.426029 662.565674,25.818722 
	C661.838379,23.615940 660.479065,20.970768 661.083740,18.898666 
	C663.172607,11.740398 667.596741,5.995647 673.818604,1.277434 
	C674.750000,1.000000 675.500000,1.000000 676.625000,1.000000 
z"></path>
<path fill="#ADF0F3" opacity="1.000000" stroke="none" d="
M883.996216,11.026739 
	C883.094604,7.908753 882.192932,4.790773 881.145630,1.336397 
	C887.354431,1.000000 893.708801,1.000000 900.531616,1.000000 
	C901.000000,1.000000 900.990845,1.465459 900.624756,1.743554 
	C897.373840,3.305073 894.386841,4.403729 891.633179,5.924717 
	C888.962830,7.399661 886.532166,9.308471 883.996216,11.026739 
z"></path>
<path fill="#5473FF" opacity="1.000000" stroke="none" d="
M471.882874,766.142578 
	C468.552460,766.010803 465.222046,765.879089 461.117554,765.493835 
	C453.755768,764.638306 447.161774,764.096741 440.581665,763.420532 
	C429.721252,762.304626 418.869751,761.101807 408.002075,759.564148 
	C405.483917,752.892334 401.048676,751.945312 396.540314,756.674683 
	C395.916229,757.329285 394.875366,757.586609 393.786560,757.855652 
	C393.341614,757.138184 393.137604,756.592957 392.947327,755.659485 
	C390.971100,750.515808 388.981171,745.760437 387.396881,741.012756 
	C395.749603,742.680969 403.633972,744.793335 411.657013,745.905762 
	C427.408051,748.089722 443.240601,749.681030 459.031219,751.585693 
	C473.983337,753.389099 489.053040,754.580444 503.210236,748.371765 
	C513.964905,743.655334 524.049927,737.428955 534.528015,732.059814 
	C542.927002,727.756104 551.378967,723.531372 559.982178,719.660034 
	C564.854919,717.467407 570.440491,716.718201 575.085388,714.183411 
	C597.871765,701.748108 616.244934,684.261108 632.596497,664.208069 
	C653.509033,638.561584 669.018677,610.523560 676.867676,578.094360 
	C680.597290,562.684998 679.675476,548.825684 672.153992,534.897217 
	C662.882080,517.727539 649.951111,503.413239 637.341003,488.880585 
	C620.526550,469.502594 597.779541,458.113953 576.260742,445.164032 
	C566.686646,439.402496 557.359558,433.437561 550.850830,423.714905 
	C550.973389,422.648315 551.053345,421.938904 551.471924,421.147034 
	C554.184387,418.617462 556.558350,416.170349 558.932312,413.723236 
	C566.663940,423.453796 577.270020,429.383179 587.548462,435.890076 
	C603.417358,445.935883 619.589417,455.706726 634.332458,467.254425 
	C644.007019,474.832123 651.629456,485.129791 659.743530,494.576447 
	C672.362244,509.267456 683.625610,524.832153 690.262390,543.369751 
	C693.227600,551.651855 694.050903,559.950195 692.328796,568.377869 
	C684.790039,605.270752 670.037659,638.633850 646.308105,668.365540 
	C627.885010,691.448547 607.658142,711.873657 581.438171,725.795044 
	C575.589539,728.900391 569.303833,731.172913 563.280273,733.960510 
	C553.809021,738.343750 544.344971,742.747192 534.960083,747.310974 
	C524.518616,752.388550 514.169128,757.655273 503.038879,762.983337 
	C492.159729,764.132202 482.021301,765.137390 471.882874,766.142578 
z"></path>
<path fill="#5EE1E7" opacity="1.000000" stroke="none" d="
M558.983215,413.395508 
	C556.558350,416.170349 554.184387,418.617462 551.120728,420.939392 
	C547.435852,420.179871 544.438721,419.554657 541.446167,418.908539 
	C538.795776,418.336273 537.158752,417.239380 538.863098,414.205627 
	C539.407776,413.236145 539.653992,412.098999 540.024414,411.027985 
	C540.012085,411.017426 540.027344,411.031158 540.391968,411.045685 
	C543.175903,408.748108 545.595215,406.436035 548.315002,403.961548 
	C551.615601,400.472931 554.578186,397.111969 557.622314,393.826538 
	C570.712952,379.698273 583.878113,365.638550 596.904114,351.451019 
	C601.052673,346.932526 604.923645,342.152039 608.802002,337.393890 
	C618.440125,325.569244 627.890442,313.589539 637.645386,301.862823 
	C644.863403,293.185944 652.755005,285.058136 659.777344,276.232788 
	C667.832581,266.109314 674.975952,255.259613 683.045593,245.148468 
	C689.976807,236.463684 698.164429,228.762314 704.880554,219.929611 
	C714.518677,207.253952 722.942810,193.655563 732.574890,180.975037 
	C747.027222,161.948776 761.849243,143.190338 776.960266,124.682343 
	C785.876343,113.761917 795.653137,103.544212 805.042847,93.010483 
	C805.042847,93.010483 804.998169,92.992989 805.228027,92.903442 
	C805.658020,92.540932 805.858093,92.267967 806.058105,91.994980 
	C821.188110,77.614761 836.264343,63.233814 849.720459,47.163239 
	C858.625977,36.527435 868.851624,26.996691 878.491943,16.976667 
	C880.220215,15.180307 881.976257,13.410707 883.857910,11.327751 
	C886.532166,9.308471 888.962830,7.399661 891.633179,5.924717 
	C894.386841,4.403729 897.373840,3.305073 900.661804,1.973363 
	C906.141479,4.715588 906.500427,8.551807 901.879456,12.888839 
	C895.204468,19.153702 888.376953,25.255766 881.674805,31.492052 
	C876.069580,36.707573 870.437927,41.902645 865.014160,47.303715 
	C845.664551,66.572380 826.072937,85.612839 807.175049,105.317085 
	C776.803162,136.985016 749.745117,171.222794 726.592224,208.661514 
	C717.207947,223.836121 704.852112,237.173264 693.845947,251.344559 
	C689.561096,256.861603 684.754150,262.052338 681.080261,267.949463 
	C671.149536,283.889923 658.660156,297.651093 646.099304,311.466614 
	C637.394897,321.040527 630.012756,331.805603 621.494446,341.562347 
	C610.349792,354.327209 598.557861,366.525146 587.293274,379.188324 
	C584.494568,382.334473 582.847900,386.476074 580.317688,389.898438 
	C577.702942,393.435303 574.772034,396.760376 571.772156,399.985321 
	C567.627808,404.440674 563.289368,408.715576 558.983215,413.395508 
z"></path>
<path fill="#A9B8FF" opacity="1.000000" stroke="none" d="
M408.014496,759.935608 
	C418.869751,761.101807 429.721252,762.304626 440.581665,763.420532 
	C447.161774,764.096741 453.755768,764.638306 460.661194,765.471619 
	C454.274963,766.048889 447.495880,767.187805 440.884155,766.560974 
	C430.113556,765.539734 419.674377,765.316650 409.649292,770.102783 
	C408.487457,770.657471 407.094360,770.727722 405.405273,770.624817 
	C406.006195,766.796631 407.010345,763.366089 408.014496,759.935608 
z"></path>
<path fill="#A9B8FF" opacity="1.000000" stroke="none" d="
M471.953552,766.475708 
	C482.021301,765.137390 492.159729,764.132202 502.696136,763.117798 
	C497.801086,777.162354 479.063568,777.829041 471.953552,766.475708 
z"></path>
<path fill="#58A9F3" opacity="1.000000" stroke="none" d="
M408.002075,759.564148 
	C407.010345,763.366089 406.006195,766.796631 405.005615,770.615967 
	C405.009186,771.004883 404.666321,771.170654 404.483032,771.220947 
	C400.851318,770.542847 397.402832,769.814514 393.530212,768.769653 
	C393.077820,768.284790 393.049622,768.116333 393.033661,767.541077 
	C393.373108,764.098816 393.700287,761.063293 394.027466,758.027832 
	C394.875366,757.586609 395.916229,757.329285 396.540314,756.674683 
	C401.048676,751.945312 405.483917,752.892334 408.002075,759.564148 
z"></path>
<path fill="#5473FF" opacity="1.000000" stroke="none" d="
M480.568573,406.312683 
	C481.014862,406.378967 480.978821,406.691406 480.958313,407.208008 
	C478.608521,411.198975 476.279236,414.673340 473.491852,418.104858 
	C460.407867,417.664185 447.781067,416.963989 435.156464,417.000854 
	C429.179199,417.018311 422.702972,417.220154 417.313080,419.433472 
	C383.607513,433.274475 358.334961,458.021759 335.046936,485.005371 
	C323.836914,497.994293 317.300079,513.814514 310.312225,529.273621 
	C301.107269,549.637573 296.198883,570.782593 295.710815,593.348572 
	C295.052826,623.769531 297.906891,653.480713 308.918182,681.947693 
	C316.788116,702.293457 330.329651,718.180115 350.087219,728.018555 
	C356.739471,731.331238 364.005798,733.410767 370.796112,736.324341 
	C366.400055,739.646057 362.199310,742.697388 357.786469,745.782959 
	C357.574341,745.817200 357.157837,745.923096 357.157837,745.923096 
	C337.236938,740.185120 322.925201,726.879761 309.890900,711.547485 
	C300.266663,700.226379 296.461700,686.450195 292.179474,672.853333 
	C284.874878,649.659973 282.292969,625.790039 282.302917,601.522949 
	C282.327728,541.109192 307.304108,491.986237 350.303223,451.130005 
	C361.135284,440.837738 372.365356,430.794037 384.400543,421.986145 
	C396.452179,413.166260 409.851471,405.580658 424.917114,403.796356 
	C436.021027,402.481201 447.475891,403.912140 458.760834,404.420990 
	C465.894226,404.742645 473.002655,405.618896 480.568573,406.312683 
z"></path>
<path fill="#AEF0F3" opacity="1.000000" stroke="none" d="
M659.270874,30.804678 
	C652.976318,40.138325 646.084290,49.417744 639.576050,58.958923 
	C631.840332,70.299614 623.588135,81.408157 617.087280,93.442444 
	C607.714233,110.793541 599.724182,128.891342 591.114929,146.656418 
	C590.547974,147.826202 589.734863,148.876678 588.737793,150.120865 
	C591.671448,136.933868 594.660950,123.543999 598.192139,110.298515 
	C603.584900,90.070259 609.985229,70.142761 620.246155,51.777287 
	C623.521179,45.915524 627.967712,40.654621 632.252930,35.425941 
	C636.562073,30.168131 642.498169,29.216139 648.983459,30.164186 
	C652.234802,30.639484 655.554504,30.647154 659.270874,30.804678 
z"></path>
<path fill="#86E9ED" opacity="1.000000" stroke="none" d="
M357.048584,746.198059 
	C357.157837,745.923096 357.574341,745.817200 358.101837,745.979126 
	C360.747894,746.747864 362.866455,747.354736 365.212097,748.245483 
	C372.288391,750.696655 379.137543,752.863953 385.979004,755.286438 
	C385.962799,755.711731 385.954315,755.881775 385.547180,756.031616 
	C382.766174,755.636047 380.383820,755.260742 377.932495,754.874512 
	C380.419800,757.730835 382.709930,760.360718 384.800842,763.270264 
	C381.306274,766.250000 377.977661,767.148987 373.614532,765.518677 
	C369.651184,764.037781 365.226868,763.790588 361.005798,762.999512 
	C363.735291,756.103638 362.817841,753.234192 356.183655,748.242920 
	C356.307251,747.468506 356.623291,746.970764 357.048584,746.198059 
z"></path>
<path fill="#AEF0F3" opacity="1.000000" stroke="none" d="
M491.861725,379.251038 
	C489.385681,385.711548 486.472687,392.074280 483.741577,398.514099 
	C482.793182,400.750305 482.295380,403.177582 481.299866,405.736511 
	C480.339874,402.910400 479.222809,399.884888 479.089630,396.816650 
	C478.718872,388.274597 482.943451,382.531067 491.861725,379.251038 
z"></path>
<path fill="#58A9F3" opacity="1.000000" stroke="none" d="
M473.949982,418.147705 
	C476.279236,414.673340 478.608521,411.198975 480.989319,407.362183 
	C484.339508,407.833496 487.611115,408.817200 490.951447,409.420593 
	C492.138519,409.634949 493.492615,408.924957 494.895203,408.354248 
	C501.992584,409.012024 508.958313,410.014130 515.948730,410.795990 
	C516.634827,410.872711 517.472229,409.596161 518.311890,408.564331 
	C518.384399,408.180878 518.724976,408.292969 519.173950,408.521454 
	C526.367798,410.046021 532.898438,413.252655 540.036804,411.038544 
	C539.653992,412.098999 539.407776,413.236145 538.863098,414.205627 
	C537.158752,417.239380 538.795776,418.336273 541.446167,418.908539 
	C544.438721,419.554657 547.435852,420.179871 550.782166,421.021851 
	C551.053345,421.938904 550.973389,422.648315 550.474670,423.679352 
	C546.721436,423.664551 543.386963,423.328064 539.901550,422.665466 
	C538.465942,421.291870 536.996277,419.174591 535.924805,419.359924 
	C523.070007,421.582916 510.676422,418.966827 498.381287,415.926239 
	C494.112732,414.870636 491.794617,415.543488 490.888977,420.294830 
	C489.261017,423.154694 488.276581,426.306915 486.142273,428.056732 
	C484.162231,429.680115 480.511993,431.013428 478.413635,430.244965 
	C476.390106,429.503906 475.097260,426.038300 474.087372,423.526825 
	C473.460358,421.967499 473.957458,419.956177 473.949982,418.147705 
z"></path>
<path fill="#FFFFFF" opacity="1.000000" stroke="none" d="
M781.460266,40.050018 
	C789.348572,40.466476 796.798584,40.889019 804.248596,41.311558 
	C804.470337,41.619572 804.692078,41.927586 804.913879,42.235600 
	C803.707031,42.993080 802.471802,44.441311 801.297974,44.393219 
	C794.851196,44.129097 788.414185,43.552315 781.988098,42.934563 
	C781.050964,42.844467 780.190369,41.958557 779.294312,41.440887 
	C779.870178,40.979294 780.446106,40.517696 781.460266,40.050018 
z"></path>
<path fill="#86E9ED" opacity="1.000000" stroke="none" d="
M352.319458,775.311768 
	C353.467957,773.408936 354.885345,771.726929 356.903320,770.188782 
	C361.954865,777.085938 367.925354,781.239319 376.282959,779.868347 
	C379.944366,779.267822 383.382660,777.306946 386.941589,776.362549 
	C386.651825,778.845398 386.342682,780.929504 386.033539,783.013550 
	C386.033539,783.013550 386.016602,783.032715 386.028473,783.045410 
	C384.916077,783.653442 383.614075,784.050293 382.694519,784.874084 
	C371.659607,794.760071 356.163147,789.974915 352.319458,775.311768 
z"></path>
<path fill="#FFFFFF" opacity="1.000000" stroke="none" d="
M208.592682,912.851318 
	C211.740967,907.767761 215.231567,902.713562 218.897446,897.376892 
	C219.152374,898.102783 219.637558,899.317993 219.245819,900.085815 
	C216.711624,905.052490 214.822220,910.601379 208.592682,912.851318 
z"></path>
<path fill="#ADF0F3" opacity="1.000000" stroke="none" d="
M804.667236,93.007317 
	C795.653137,103.544212 785.876343,113.761917 776.960266,124.682343 
	C761.849243,143.190338 747.027222,161.948776 732.574890,180.975037 
	C722.942810,193.655563 714.518677,207.253952 704.880554,219.929611 
	C698.164429,228.762314 689.976807,236.463684 683.045593,245.148468 
	C674.975952,255.259613 667.832581,266.109314 659.777344,276.232788 
	C652.755005,285.058136 644.863403,293.185944 637.645386,301.862823 
	C627.890442,313.589539 618.440125,325.569244 608.802002,337.393890 
	C604.923645,342.152039 601.052673,346.932526 596.904114,351.451019 
	C583.878113,365.638550 570.712952,379.698273 557.622314,393.826538 
	C554.578186,397.111969 551.615601,400.472931 547.933777,403.856934 
	C545.177917,403.582214 543.103760,403.249695 541.029663,402.917114 
	C543.981018,397.838745 546.274597,392.205475 550.004456,387.783722 
	C562.302551,373.204346 574.938171,358.897614 587.778015,344.789978 
	C611.021912,319.250977 633.839233,293.320160 652.663635,264.309631 
	C667.564148,241.346283 680.856506,217.343597 695.570496,194.253342 
	C703.292480,182.135468 712.299561,170.802505 721.169678,159.461884 
	C727.393799,151.504150 733.685913,143.370224 741.169983,136.682892 
	C751.513428,127.440514 762.758423,119.135117 774.087891,111.091141 
	C782.862549,104.861000 792.350830,99.633972 801.548462,94.004456 
	C802.362122,93.506462 803.372559,93.329987 804.667236,93.007317 
z"></path>
<path fill="#ADF0F3" opacity="1.000000" stroke="none" d="
M543.997559,363.998230 
	C544.825500,361.688751 545.425598,359.264374 546.521912,357.090271 
	C550.628235,348.947113 554.998474,340.936188 559.051880,332.767578 
	C560.554321,329.739868 561.961426,327.698334 565.971313,327.799133 
	C569.646851,327.891479 573.356445,326.629150 578.727661,325.661713 
	C570.033936,337.605133 562.452820,348.554291 554.202576,358.973511 
	C552.174255,361.535095 547.963196,362.368439 544.377808,363.998169 
	C544.000000,364.000000 543.997559,363.998230 543.997559,363.998230 
z"></path>
<path fill="#ADF0F3" opacity="1.000000" stroke="none" d="
M687.000000,178.000778 
	C692.497375,169.339462 697.359009,160.183823 703.627441,152.122055 
	C715.827332,136.431885 728.850769,121.383499 741.448364,105.999985 
	C743.964478,102.927429 745.919006,99.389084 748.489014,96.368950 
	C749.850525,94.768967 751.978577,93.821365 753.760620,92.579269 
	C754.128601,93.036919 754.496582,93.494560 754.864502,93.952202 
	C752.038513,97.298210 749.062195,100.529778 746.412415,104.009933 
	C734.662048,119.442703 722.971863,134.921646 711.328857,150.435669 
	C705.457275,158.259369 699.865173,166.296936 693.843506,174.000778 
	C692.431885,175.806641 689.791382,176.651932 687.358154,177.969574 
	C687.000000,178.000000 687.000000,178.000778 687.000000,178.000778 
z"></path>
<path fill="#5BC5ED" opacity="1.000000" stroke="none" d="
M540.024414,411.027985 
	C532.898438,413.252655 526.367798,410.046021 519.352234,408.540710 
	C525.131775,404.184784 531.815247,402.425537 539.567749,403.483276 
	C540.018127,406.310059 540.022766,408.670593 540.027344,411.031158 
	C540.027344,411.031158 540.012085,411.017426 540.024414,411.027985 
z"></path>
<path fill="#58A9F3" opacity="1.000000" stroke="none" d="
M540.391968,411.045685 
	C540.022766,408.670593 540.018127,406.310059 540.023071,403.512573 
	C540.199280,403.053131 540.366028,403.030670 540.781250,402.962646 
	C543.103760,403.249695 545.177917,403.582214 547.633240,404.019348 
	C545.595215,406.436035 543.175903,408.748108 540.391968,411.045685 
z"></path>
<path fill="#ADF0F3" opacity="1.000000" stroke="none" d="
M544.001221,364.001221 
	C543.906799,364.035553 543.811157,364.068665 543.856567,364.050018 
	C543.997559,363.998230 544.000000,364.000000 544.001221,364.001221 
z"></path>
<path fill="#ADF0F3" opacity="1.000000" stroke="none" d="
M685.549622,180.461166 
	C685.582336,180.516876 685.516907,180.405457 685.549622,180.461166 
z"></path>
<path fill="#ADF0F3" opacity="1.000000" stroke="none" d="
M687.000000,177.999390 
	C686.904968,178.036316 686.809875,178.073853 686.857422,178.056091 
	C687.000000,178.000778 687.000000,178.000000 687.000000,177.999390 
z"></path>
<path fill="#ADF0F3" opacity="1.000000" stroke="none" d="
M805.822388,92.103271 
	C805.858093,92.267967 805.658020,92.540932 805.227539,92.927490 
	C805.193665,92.764572 805.390198,92.488060 805.822388,92.103271 
z"></path>
<path fill="#72E5EA" opacity="1.000000" stroke="none" d="
M386.922241,775.963867 
	C383.382660,777.306946 379.944366,779.267822 376.282959,779.868347 
	C367.925354,781.239319 361.954865,777.085938 357.231140,770.129822 
	C358.103271,767.720215 359.248108,765.513428 360.699371,763.153076 
	C365.226868,763.790588 369.651184,764.037781 373.614532,765.518677 
	C377.977661,767.148987 381.306274,766.250000 385.055969,763.275879 
	C385.680389,762.999573 385.850494,762.997375 386.236572,763.103271 
	C386.721527,763.410400 386.904816,763.669800 387.001251,764.445312 
	C387.009705,767.944153 387.019348,770.987427 387.014526,774.353271 
	C386.974091,775.105164 386.948151,775.534546 386.922241,775.963867 
z"></path>
<path fill="#AEF0F3" opacity="1.000000" stroke="none" d="
M386.941589,776.362610 
	C386.948151,775.534546 386.974091,775.105164 387.312988,774.188721 
	C388.749725,771.755432 389.873444,769.809265 391.334167,767.883545 
	C392.121246,767.918579 392.571320,767.933228 393.021393,767.947876 
	C393.049622,768.116333 393.077820,768.284790 393.159851,768.703857 
	C391.018250,773.529236 388.822815,778.104004 386.330475,782.846191 
	C386.342682,780.929504 386.651825,778.845398 386.941589,776.362610 
z"></path>
<path fill="#A9B8FF" opacity="1.000000" stroke="none" d="
M473.491882,418.104858 
	C473.957458,419.956177 473.460358,421.967499 474.087372,423.526825 
	C475.097260,426.038300 476.390106,429.503906 478.413635,430.244965 
	C480.511993,431.013428 484.162231,429.680115 486.142273,428.056732 
	C488.276581,426.306915 489.261017,423.154694 491.311859,420.306396 
	C501.904419,420.958618 511.919159,422.105438 521.964905,422.808563 
	C527.968994,423.228790 534.021667,422.953949 540.052490,422.991577 
	C543.386963,423.328064 546.721436,423.664551 550.432068,424.036560 
	C557.359558,433.437561 566.686646,439.402496 576.260742,445.164032 
	C597.779541,458.113953 620.526550,469.502594 637.341003,488.880585 
	C649.951111,503.413239 662.882080,517.727539 672.153992,534.897217 
	C679.675476,548.825684 680.597290,562.684998 676.867676,578.094360 
	C669.018677,610.523560 653.509033,638.561584 632.596497,664.208069 
	C616.244934,684.261108 597.871765,701.748108 575.085388,714.183411 
	C570.440491,716.718201 564.854919,717.467407 559.982178,719.660034 
	C551.378967,723.531372 542.927002,727.756104 534.528015,732.059814 
	C524.049927,737.428955 513.964905,743.655334 503.210236,748.371765 
	C489.053040,754.580444 473.983337,753.389099 459.031219,751.585693 
	C443.240601,749.681030 427.408051,748.089722 411.657013,745.905762 
	C403.633972,744.793335 395.749603,742.680969 387.225769,740.780762 
	C386.115204,740.347961 385.581482,740.154907 384.991333,739.617126 
	C381.206177,734.152039 378.790588,733.506104 372.666077,736.065308 
	C371.884674,736.050842 371.438049,736.052368 370.991455,736.053894 
	C364.005798,733.410767 356.739471,731.331238 350.087219,728.018555 
	C330.329651,718.180115 316.788116,702.293457 308.918182,681.947693 
	C297.906891,653.480713 295.052826,623.769531 295.710815,593.348572 
	C296.198883,570.782593 301.107269,549.637573 310.312225,529.273621 
	C317.300079,513.814514 323.836914,497.994293 335.046936,485.005371 
	C358.334961,458.021759 383.607513,433.274475 417.313080,419.433472 
	C422.702972,417.220154 429.179199,417.018311 435.156464,417.000854 
	C447.781067,416.963989 460.407867,417.664185 473.491882,418.104858 
M477.235809,685.758972 
	C483.577850,683.256226 489.806091,680.388367 496.297607,678.365051 
	C501.589264,676.715698 504.331512,673.282959 506.254425,668.464355 
	C507.607697,665.073120 506.877289,662.079956 504.002014,660.699829 
	C501.664154,659.577759 497.138245,658.860901 495.990021,660.134521 
	C491.092712,665.566772 484.192169,666.805420 478.212311,669.752625 
	C463.445648,677.030396 448.227631,681.378662 431.150421,679.097778 
	C407.499146,675.938660 383.646942,674.262939 359.867004,672.103577 
	C354.279907,671.596130 351.129578,673.826050 351.107727,677.937500 
	C351.081818,682.819946 354.633850,684.541138 358.678925,684.941101 
	C370.233002,686.083435 381.826843,686.822815 393.381348,687.961304 
	C404.099762,689.017456 414.768677,690.597534 425.494751,691.547913 
	C434.526215,692.348083 443.721619,693.661987 452.634857,692.734253 
	C460.731720,691.891602 468.546051,688.334351 477.235809,685.758972 
M370.579468,556.209351 
	C367.520569,562.309753 368.645721,565.460205 375.747803,567.680725 
	C384.467224,570.407043 392.037384,574.942322 399.236450,580.382446 
	C402.536255,582.876038 406.043060,585.171509 409.698944,587.095032 
	C412.816040,588.735229 416.206268,588.898071 418.601288,585.552917 
	C421.033356,582.156006 420.243378,578.939392 417.497681,576.121765 
	C416.468231,575.065308 415.259827,574.081848 413.955231,573.410706 
	C401.874664,567.196045 389.814819,560.933105 377.576965,555.041504 
	C375.916168,554.241943 373.307068,555.412109 370.579468,556.209351 
M508.379883,575.894226 
	C513.789490,570.200928 519.012817,564.358643 528.042297,564.929016 
	C532.273132,565.196228 535.945496,562.099304 535.794189,558.899414 
	C535.593445,554.652527 532.633606,552.938904 528.907654,552.269043 
	C527.614990,552.036682 526.244507,552.077332 524.924438,552.181885 
	C509.634735,553.393555 500.234100,563.941162 490.677612,574.078369 
	C488.175629,576.732422 488.687256,580.066345 491.332947,582.584656 
	C494.117249,585.234863 497.378540,585.233948 500.374084,582.950134 
	C503.008789,580.941467 505.385620,578.594421 508.379883,575.894226 
M636.496643,606.058655 
	C637.164124,605.602417 638.198547,605.291077 638.444458,604.668335 
	C642.743042,593.782654 645.034912,582.502563 644.961853,570.776672 
	C643.045410,576.031799 641.973572,581.633606 639.556702,586.577942 
	C636.578186,592.671448 635.587708,598.789612 636.496643,606.058655 
M536.043274,584.297485 
	C532.230469,583.962646 529.315552,585.626770 528.692810,589.271606 
	C528.379700,591.104614 529.562012,594.159607 531.047241,595.077454 
	C532.729736,596.117249 535.896057,596.167847 537.734375,595.262268 
	C542.138123,593.092896 541.572144,588.742371 536.043274,584.297485 
M381.063202,592.609192 
	C382.583954,594.705872 383.757874,597.326233 385.780151,598.665588 
	C386.711243,599.282227 389.906342,597.888062 391.022522,596.536621 
	C393.685822,593.311890 392.825958,589.242065 389.719696,587.587708 
	C386.727325,585.994141 383.170837,587.741211 381.063202,592.609192 
z"></path>
<path fill="#58A9F3" opacity="1.000000" stroke="none" d="
M385.047729,739.961853 
	C385.581482,740.154907 386.115204,740.347961 386.820068,740.773010 
	C388.981171,745.760437 390.971100,750.515808 392.585754,755.650452 
	C391.484375,756.010437 390.758331,755.991211 389.984131,755.625916 
	C387.221100,752.268921 384.922516,748.674316 381.699677,746.375610 
	C376.014160,742.320312 368.398987,743.403931 364.985016,747.961609 
	C362.866455,747.354736 360.747894,746.747864 358.313965,745.944824 
	C362.199310,742.697388 366.400055,739.646057 370.796112,736.324341 
	C371.438049,736.052368 371.884674,736.050842 372.907166,736.323547 
	C377.337952,737.719116 381.192841,738.840515 385.047729,739.961853 
z"></path>
<path fill="#7CD1F1" opacity="1.000000" stroke="none" d="
M390.032288,755.971985 
	C390.758331,755.991211 391.484375,756.010437 392.572021,756.038696 
	C393.137604,756.592957 393.341614,757.138184 393.786530,757.855591 
	C393.700287,761.063293 393.373108,764.098816 393.033661,767.541077 
	C392.571320,767.933228 392.121246,767.918579 391.185822,767.616333 
	C389.467804,766.215698 388.235138,765.102722 387.002441,763.989746 
	C386.904816,763.669800 386.721527,763.410400 386.229614,762.668213 
	C385.986389,760.100586 385.966095,758.076172 385.945801,756.051819 
	C385.954315,755.881775 385.962799,755.711731 386.327820,755.310059 
	C387.800293,755.376343 388.916290,755.674133 390.032288,755.971985 
z"></path>
<path fill="#5BC5ED" opacity="1.000000" stroke="none" d="
M389.984131,755.625916 
	C388.916290,755.674133 387.800293,755.376343 386.335510,755.054810 
	C379.137543,752.863953 372.288391,750.696655 365.212097,748.245483 
	C368.398987,743.403931 376.014160,742.320312 381.699677,746.375610 
	C384.922516,748.674316 387.221100,752.268921 389.984131,755.625916 
z"></path>
<path fill="#ADF0F3" opacity="1.000000" stroke="none" d="
M385.547180,756.031616 
	C385.966095,758.076172 385.986389,760.100586 386.013611,762.560059 
	C385.850494,762.997375 385.680389,762.999573 385.255188,762.996216 
	C382.709930,760.360718 380.419800,757.730835 377.932495,754.874512 
	C380.383820,755.260742 382.766174,755.636047 385.547180,756.031616 
z"></path>
<path fill="#5473FF" opacity="1.000000" stroke="none" d="
M539.901550,422.665466 
	C534.021667,422.953949 527.968994,423.228790 521.964905,422.808563 
	C511.919159,422.105438 501.904419,420.958618 491.453735,419.986938 
	C491.794617,415.543488 494.112732,414.870636 498.381287,415.926239 
	C510.676422,418.966827 523.070007,421.582916 535.924805,419.359924 
	C536.996277,419.174591 538.465942,421.291870 539.901550,422.665466 
z"></path>
<path fill="#86E9ED" opacity="1.000000" stroke="none" d="
M387.001251,764.445312 
	C388.235138,765.102722 389.467804,766.215698 390.848816,767.595947 
	C389.873444,769.809265 388.749725,771.755432 387.327515,773.866150 
	C387.019348,770.987427 387.009705,767.944153 387.001251,764.445312 
z"></path>
<path fill="#5472FF" opacity="1.000000" stroke="none" d="
M476.860382,685.866333 
	C468.546051,688.334351 460.731720,691.891602 452.634857,692.734253 
	C443.721619,693.661987 434.526215,692.348083 425.494751,691.547913 
	C414.768677,690.597534 404.099762,689.017456 393.381348,687.961304 
	C381.826843,686.822815 370.233002,686.083435 358.678925,684.941101 
	C354.633850,684.541138 351.081818,682.819946 351.107727,677.937500 
	C351.129578,673.826050 354.279907,671.596130 359.867004,672.103577 
	C383.646942,674.262939 407.499146,675.938660 431.150421,679.097778 
	C448.227631,681.378662 463.445648,677.030396 478.212311,669.752625 
	C484.192169,666.805420 491.092712,665.566772 495.990021,660.134521 
	C497.138245,658.860901 501.664154,659.577759 504.002014,660.699829 
	C506.877289,662.079956 507.607697,665.073120 506.254425,668.464355 
	C504.331512,673.282959 501.589264,676.715698 496.297607,678.365051 
	C489.806091,680.388367 483.577850,683.256226 476.860382,685.866333 
z"></path>
<path fill="#5472FF" opacity="1.000000" stroke="none" d="
M370.858276,555.939819 
	C373.307068,555.412109 375.916168,554.241943 377.576965,555.041504 
	C389.814819,560.933105 401.874664,567.196045 413.955231,573.410706 
	C415.259827,574.081848 416.468231,575.065308 417.497681,576.121765 
	C420.243378,578.939392 421.033356,582.156006 418.601288,585.552917 
	C416.206268,588.898071 412.816040,588.735229 409.698944,587.095032 
	C406.043060,585.171509 402.536255,582.876038 399.236450,580.382446 
	C392.037384,574.942322 384.467224,570.407043 375.747803,567.680725 
	C368.645721,565.460205 367.520569,562.309753 370.858276,555.939819 
z"></path>
<path fill="#5472FF" opacity="1.000000" stroke="none" d="
M508.128113,576.145508 
	C505.385620,578.594421 503.008789,580.941467 500.374084,582.950134 
	C497.378540,585.233948 494.117249,585.234863 491.332947,582.584656 
	C488.687256,580.066345 488.175629,576.732422 490.677612,574.078369 
	C500.234100,563.941162 509.634735,553.393555 524.924438,552.181885 
	C526.244507,552.077332 527.614990,552.036682 528.907654,552.269043 
	C532.633606,552.938904 535.593445,554.652527 535.794189,558.899414 
	C535.945496,562.099304 532.273132,565.196228 528.042297,564.929016 
	C519.012817,564.358643 513.789490,570.200928 508.128113,576.145508 
z"></path>
<path fill="#FFFFFF" opacity="1.000000" stroke="none" d="
M636.380371,605.710449 
	C635.587708,598.789612 636.578186,592.671448 639.556702,586.577942 
	C641.973572,581.633606 643.045410,576.031799 644.961853,570.776672 
	C645.034912,582.502563 642.743042,593.782654 638.444458,604.668335 
	C638.198547,605.291077 637.164124,605.602417 636.380371,605.710449 
z"></path>
<path fill="#5473FF" opacity="1.000000" stroke="none" d="
M536.383606,584.449829 
	C541.572144,588.742371 542.138123,593.092896 537.734375,595.262268 
	C535.896057,596.167847 532.729736,596.117249 531.047241,595.077454 
	C529.562012,594.159607 528.379700,591.104614 528.692810,589.271606 
	C529.315552,585.626770 532.230469,583.962646 536.383606,584.449829 
z"></path>
<path fill="#5473FF" opacity="1.000000" stroke="none" d="
M381.078491,592.217163 
	C383.170837,587.741211 386.727325,585.994141 389.719696,587.587708 
	C392.825958,589.242065 393.685822,593.311890 391.022522,596.536621 
	C389.906342,597.888062 386.711243,599.282227 385.780151,598.665588 
	C383.757874,597.326233 382.583954,594.705872 381.078491,592.217163 
z"></path>
<path fill="#7CD1F1" opacity="1.000000" stroke="none" d="
M384.991333,739.617126 
	C381.192841,738.840515 377.337952,737.719116 373.241943,736.339539 
	C378.790588,733.506104 381.206177,734.152039 384.991333,739.617126 
z"></path>
</svg><style>@media (prefers-color-scheme: light) { :root { filter: none; } }
@media (prefers-color-scheme: dark) { :root { filter: invert(100%); } }
</style></svg>