<svg version="1.1" id="Layer_1" xmlns="http://www.w3.org/2000/svg" xmlns:xlink="http://www.w3.org/1999/xlink" x="0px" y="0px"
	 width="100%" viewBox="0 0 1024 1024" enable-background="new 0 0 1024 1024" xml:space="preserve">
<path fill="#000000" opacity="1.000000" stroke="none" 
	d="
M904.000000,1.000000 
	C944.324402,1.000000 984.648865,1.000000 1024.979980,1.000000 
	C1024.986572,342.249146 1024.986572,683.498291 1024.986572,1025.000000 
	C772.973206,1025.000000 520.946289,1025.000000 268.144775,1024.714111 
	C270.425293,1018.302856 273.739990,1012.290466 276.463989,1006.021362 
	C279.301849,999.490417 281.569824,992.711853 284.048157,986.025391 
	C284.009338,986.009277 284.063690,986.073425 284.398865,985.955688 
	C284.782837,985.142456 284.831604,984.447021 285.103271,983.478271 
	C290.656738,973.895020 295.368561,964.158203 301.438599,955.358215 
	C317.130768,932.609070 329.669098,908.430603 339.274078,882.460571 
	C344.472565,868.404846 351.369537,854.715881 359.339661,842.015808 
	C368.335449,827.681396 379.267365,814.543823 389.606964,801.077454 
	C396.126282,792.586609 402.430664,784.096680 404.438660,773.002563 
	C413.099030,768.844360 421.516785,765.204346 431.096497,766.023682 
	C435.016144,766.358887 438.943726,767.007263 442.856689,766.933105 
	C451.937134,766.761108 461.010895,766.235901 470.244080,765.929565 
	C470.400848,766.005371 470.746643,765.964417 470.897888,766.304565 
	C479.462006,777.680664 495.985474,778.655701 504.544128,762.987305 
	C513.093262,759.059448 521.350159,755.293945 529.425232,751.172363 
	C534.182739,748.744080 538.454041,745.321350 543.288757,743.093994 
	C556.812012,736.863647 571.051819,731.982788 583.988464,724.745483 
	C595.847107,718.111145 607.294128,710.091003 617.247192,700.872742 
	C628.555908,690.398865 638.542236,678.339478 648.101013,666.181152 
	C656.527710,655.462830 665.156738,644.395447 670.849243,632.157837 
	C678.875366,614.903137 684.727478,596.574219 690.641174,578.421753 
	C694.628113,566.183533 695.382690,553.394348 689.609497,541.303772 
	C685.087708,531.833984 680.726807,522.077759 674.689941,513.589844 
	C665.472107,500.629395 655.056702,488.496521 644.801941,476.304840 
	C635.343018,465.059387 622.482117,457.973419 610.494263,449.957367 
	C598.805664,442.141479 586.287048,435.563568 574.633484,427.700104 
	C568.955933,423.869019 562.513123,420.240509 559.930786,412.744873 
	C563.284180,408.953125 566.561096,405.506409 569.856506,402.077545 
	C573.483215,398.304016 577.458374,394.807281 580.674255,390.712830 
	C584.221191,386.196777 586.509216,380.617126 590.353455,376.424957 
	C598.474182,367.569214 608.506348,360.227112 615.487000,350.617065 
	C628.366089,332.886780 641.704529,315.728577 657.210815,300.195953 
	C663.152100,294.244568 668.299194,287.373413 673.088440,280.425262 
	C683.067749,265.947632 693.126770,251.615112 705.485046,238.968353 
	C710.557922,233.777145 715.144104,227.911819 718.985413,221.750717 
	C734.020996,197.635132 749.236938,173.726120 767.551941,151.838120 
	C782.121033,134.426804 795.955078,116.506851 812.539062,100.785194 
	C830.609558,83.654388 847.407715,65.189430 865.073608,47.620853 
	C874.659485,38.087700 884.888428,29.200504 894.843079,20.039028 
	C900.426392,14.900614 908.213989,10.842319 904.000000,1.000000 
z"/>
<path fill="#000000" opacity="1.000000" stroke="none" 
	d="
M98.000000,1025.000000 
	C65.674294,1025.000000 33.348591,1025.000000 1.017163,1025.000000 
	C1.011442,683.754822 1.011442,342.509644 1.011442,1.000000 
	C224.359100,1.000000 447.718323,1.000000 671.841553,1.262918 
	C671.262146,2.981867 669.947815,4.466056 668.570312,5.889085 
	C662.492188,12.168193 658.021912,18.970610 661.049194,28.405201 
	C660.975464,28.514462 661.015991,28.774935 660.625305,28.866283 
	C657.169678,30.332407 654.439026,31.395908 650.649109,30.155073 
	C643.253967,27.733873 636.384155,29.728634 631.029358,35.541237 
	C621.179016,46.233730 614.835388,59.097210 610.114319,72.575058 
	C604.271667,89.254677 599.303223,106.253899 594.390381,123.240364 
	C591.820618,132.125504 590.178284,141.278885 588.045227,150.380447 
	C587.973389,150.449783 588.056946,150.631165 587.717773,150.843918 
	C587.244934,152.335541 587.111145,153.614410 586.634399,155.058395 
	C586.113708,156.017029 586.053223,156.860153 585.741333,157.596848 
	C576.165344,180.215164 566.378540,202.620651 561.079468,226.925308 
	C558.328796,239.541519 550.923523,251.106354 545.963501,263.285614 
	C537.512817,284.036407 529.332214,304.897156 520.706299,325.888031 
	C515.246155,335.610107 510.020050,345.105530 505.064209,354.740021 
	C503.945984,356.913971 503.769196,359.572235 502.999451,362.328339 
	C499.906677,367.319183 496.973511,371.989258 493.772339,376.809875 
	C493.308838,377.298370 493.113342,377.636353 492.952271,377.979736 
	C492.986725,377.985077 492.959717,377.920837 492.687408,377.973145 
	C492.248505,378.337616 492.081940,378.649750 491.952393,378.969208 
	C491.989471,378.976532 491.947296,378.913879 491.571808,378.944061 
	C480.377197,383.087067 475.640289,392.344147 480.859131,405.963287 
	C480.806885,405.910065 480.691833,406.004974 480.256348,405.981506 
	C473.077881,405.583588 466.334625,405.214020 459.592072,404.832367 
	C456.611084,404.663666 453.632385,404.454102 450.651093,404.291595 
	C442.587402,403.852020 434.431122,402.459961 426.479095,403.213501 
	C412.946930,404.495758 401.164886,411.291870 389.652039,417.983032 
	C373.468353,427.388824 360.310608,440.593323 346.907654,453.443878 
	C334.052887,465.768951 322.174805,478.975128 313.219971,494.393127 
	C307.301147,504.583801 302.332458,515.367065 297.490082,526.133179 
	C288.814911,545.420654 281.515686,565.123535 282.569336,587.069885 
	C282.098145,597.880920 282.009583,608.493286 282.000031,619.105774 
	C281.999420,619.769409 282.617645,620.433655 282.971527,621.555420 
	C283.441833,628.241638 283.252930,634.597229 284.469574,640.671326 
	C286.887054,652.740662 290.207336,664.625854 292.923431,676.639404 
	C298.546021,701.508240 313.252686,720.239624 333.292694,734.869263 
	C340.336548,740.011353 349.040497,742.879395 356.602173,746.883362 
	C350.495331,747.383240 348.146423,751.221985 345.777344,755.935425 
	C343.410980,760.643311 340.535919,764.841248 338.887177,770.149475 
	C335.131653,782.240540 326.116119,790.922668 315.899445,797.815735 
	C304.887939,805.244995 293.226715,811.715759 281.806274,818.533264 
	C268.961456,826.200989 256.095245,833.789734 246.099731,845.294128 
	C241.561203,850.517761 236.462021,855.257874 231.978943,860.525208 
	C225.457870,868.187073 218.613052,875.694702 213.066635,884.039307 
	C201.752792,901.061279 188.961838,916.786804 174.898880,931.563049 
	C169.482803,937.253845 164.259842,943.152344 159.273834,949.223022 
	C151.050018,959.235840 143.090286,969.465576 134.764832,979.779785 
	C134.312927,980.296631 134.115417,980.637634 133.952240,980.981873 
	C133.986603,980.985107 133.962204,980.920593 133.691055,980.973022 
	C133.253479,981.335876 133.087067,981.646301 132.955368,981.972778 
	C132.990097,981.988892 132.953232,981.921753 132.683258,981.971313 
	C132.249573,982.329590 132.085861,982.638428 131.957825,982.969971 
	C131.993484,982.992737 131.945892,982.922729 131.677582,982.973145 
	C131.247009,983.331177 131.084717,983.638794 130.957306,983.971802 
	C130.992203,983.997192 130.943161,983.926331 130.623917,984.019775 
	C130.237595,984.531189 130.170517,984.949158 130.034576,985.429565 
	C129.965729,985.492126 130.034637,985.664917 129.774139,985.822815 
	C129.315201,986.315491 129.116760,986.650208 128.953354,986.983887 
	C128.988373,986.982910 128.973343,986.914429 128.703995,986.977905 
	C128.262741,987.351501 128.090836,987.661621 127.955872,987.973938 
	C127.992805,987.976074 127.940514,987.923645 127.618011,988.026245 
	C126.496918,989.402771 125.698326,990.676697 124.931610,991.967285 
	C124.963493,991.983948 124.969437,991.912231 124.700333,991.974426 
	C124.260841,992.346313 124.090446,992.656067 123.958420,992.971802 
	C123.996773,992.977905 123.937981,992.927185 123.616470,993.020752 
	C122.835052,994.061890 122.375137,995.009399 121.952148,995.975037 
	C121.989082,995.993103 121.941544,995.925964 121.625778,996.019287 
	C121.151176,996.738831 120.992348,997.364929 120.523117,998.135620 
	C115.329399,1003.522766 110.270546,1008.615845 105.627403,1014.063232 
	C102.757774,1017.429932 100.520912,1021.336060 98.000000,1025.000000 
z"/>
<path fill="#AEF0F3" opacity="1.000000" stroke="none" 
	d="
M686.000000,1.000000 
	C744.687561,1.000000 803.375122,1.000000 862.373169,1.292376 
	C859.412598,4.644387 856.183838,7.750778 852.861206,10.753308 
	C847.075439,15.981548 841.175415,21.084215 835.428345,26.354136 
	C829.697937,31.608818 824.735657,37.992496 818.313904,42.144806 
	C801.850037,52.790333 784.665710,62.313461 767.948242,72.576653 
	C744.388062,87.040672 721.748962,102.440399 703.353210,123.763123 
	C683.898560,146.313095 667.058594,170.510651 652.895630,196.534286 
	C633.001465,233.088531 608.572571,266.377838 581.519165,297.786438 
	C563.851440,318.298431 545.230652,337.986572 527.321655,358.294952 
	C518.878296,367.869629 510.638763,377.626770 506.922241,390.412170 
	C502.687164,404.981506 503.249664,406.231598 518.405151,408.636993 
	C517.496582,409.622742 516.620850,410.844604 515.888489,410.764038 
	C508.921173,409.997223 501.978180,409.009521 495.071899,407.714325 
	C499.815002,397.624023 503.953247,387.581390 509.329254,378.252014 
	C520.897095,358.177338 532.003357,337.919220 540.288696,316.225800 
	C549.727417,291.512543 557.894043,266.285370 570.377441,242.804276 
	C572.216248,239.345566 573.502991,235.354889 574.022461,231.473465 
	C576.640076,211.915833 583.896179,193.897461 591.911011,176.127731 
	C600.535461,157.006607 609.028503,137.814423 618.207458,118.959244 
	C624.538208,105.954742 631.240784,93.025871 639.009705,80.849556 
	C653.594482,57.990383 669.046631,35.683666 684.202332,13.190540 
	C686.796997,9.339810 687.889099,5.431661 686.000000,1.000000 
M802.042725,41.992912 
	C794.753174,41.608601 787.463684,41.224289 780.174133,40.839977 
	C780.152283,41.426903 780.130493,42.013832 780.108643,42.600761 
	C787.648926,42.969692 795.188660,43.352657 802.731506,43.658501 
	C803.047668,43.671322 803.393005,42.965431 804.147644,42.199673 
	C804.296082,41.869896 804.444519,41.540115 804.593018,41.210373 
	C804.037170,41.446938 803.481323,41.683502 802.042725,41.992912 
z"/>
<path fill="#AEF0F3" opacity="1.000000" stroke="none" 
	d="
M252.000000,1025.000000 
	C206.645767,1025.000000 161.291550,1025.000000 115.635849,1024.711060 
	C120.227646,1019.246216 125.493729,1014.369812 129.941071,1008.835510 
	C141.184982,994.843262 151.873169,980.404236 163.126923,966.420105 
	C181.305923,943.830383 202.076111,923.395813 217.879547,898.793274 
	C224.666504,888.227417 233.323700,878.824097 241.486984,869.194153 
	C247.492584,862.109619 253.770065,855.195984 260.467072,848.769714 
	C273.707031,836.065247 289.987518,827.757202 305.908875,819.149719 
	C325.403595,808.610413 341.956848,795.342102 352.308289,775.365356 
	C356.626312,790.374207 371.229126,794.630493 383.046570,784.532410 
	C383.865906,783.832214 385.036285,783.542847 386.006165,783.407532 
	C380.439911,791.217712 375.338776,799.050049 369.303955,806.080933 
	C348.815186,829.951355 332.999207,856.375183 322.943085,886.296448 
	C319.674988,896.020325 315.831146,905.768494 310.701691,914.606506 
	C297.605164,937.171631 283.729553,959.288208 269.981598,981.470093 
	C261.583221,995.020569 255.944901,1009.643982 252.000000,1025.000000 
z"/>
<path fill="#86E9ED" opacity="1.000000" stroke="none" 
	d="
M518.504456,408.268829 
	C503.249664,406.231598 502.687164,404.981506 506.922241,390.412170 
	C510.638763,377.626770 518.878296,367.869629 527.321655,358.294952 
	C545.230652,337.986572 563.851440,318.298431 581.519165,297.786438 
	C608.572571,266.377838 633.001465,233.088531 652.895630,196.534286 
	C667.058594,170.510651 683.898560,146.313095 703.353210,123.763123 
	C721.748962,102.440399 744.388062,87.040672 767.948242,72.576653 
	C784.665710,62.313461 801.850037,52.790333 818.313904,42.144806 
	C824.735657,37.992496 829.697937,31.608818 835.428345,26.354136 
	C841.175415,21.084215 847.075439,15.981548 852.861206,10.753308 
	C856.183838,7.750778 859.412598,4.644387 862.841797,1.292376 
	C868.688049,1.000000 874.376038,1.000000 880.680725,1.333909 
	C882.198242,4.783045 883.099121,7.898273 883.849243,11.310406 
	C882.081970,13.277776 880.460693,14.943626 878.849792,16.619429 
	C869.097778,26.763842 858.768616,36.423389 849.734009,47.171017 
	C836.247742,63.214336 821.200806,77.628067 805.819580,92.133514 
	C805.388794,92.573280 805.190247,92.872231 804.902832,93.349335 
	C804.654907,93.750206 804.447998,93.911774 803.798035,94.005737 
	C801.702271,94.620544 799.834961,94.972679 798.328003,95.906296 
	C787.740723,102.465431 777.173584,109.060249 766.703552,115.804527 
	C750.343689,126.342796 736.628357,139.783569 724.598633,154.973679 
	C716.368591,165.365860 707.515808,175.399155 700.445068,186.546585 
	C686.657410,208.283813 674.408997,230.996552 660.646729,252.750870 
	C637.038208,290.069397 607.812256,322.965790 578.128357,355.473938 
	C567.284302,367.349701 556.955688,379.708435 546.711853,392.111053 
	C544.177673,395.179291 542.892029,399.278809 540.785278,402.957031 
	C540.371948,403.037750 540.205933,403.065704 539.588196,403.060822 
	C531.895813,402.689270 525.118835,404.074585 518.972229,408.394714 
	C518.809875,408.381927 518.504456,408.268829 518.504456,408.268829 
M687.711182,177.917084 
	C689.872314,176.486435 692.564819,175.478714 694.100037,173.549896 
	C699.884338,166.282776 705.216431,158.658249 710.855469,151.272659 
	C724.740601,133.087189 738.711853,114.967476 752.602173,96.785950 
	C753.261475,95.922997 753.476013,94.720207 753.897644,93.675674 
	C753.445862,93.345039 752.994141,93.014404 752.542419,92.683769 
	C751.088501,94.024452 749.409241,95.191727 748.220703,96.736580 
	C743.669861,102.651787 739.540710,108.908585 734.766907,114.631454 
	C726.167908,124.939873 716.655762,134.530365 708.574829,145.214767 
	C700.700256,155.626358 694.139893,167.031906 686.776978,178.100189 
	C686.776978,178.100189 686.768311,178.404968 686.768311,178.404968 
	C686.768311,178.404968 686.999268,177.998489 687.711182,177.917084 
M544.753174,363.987793 
	C550.920105,362.623566 555.531067,358.989502 559.013916,353.899475 
	C563.788574,346.921600 568.402039,339.833588 573.112793,332.811707 
	C574.499634,330.744507 575.981934,328.741333 578.089355,325.763672 
	C573.353699,326.630371 569.935120,327.883362 566.586914,327.717499 
	C561.904663,327.485565 560.349304,330.139374 558.638550,333.618225 
	C554.756592,341.512390 550.499695,349.221344 546.535828,357.076599 
	C545.436279,359.255676 544.830078,361.683716 543.775513,364.090576 
	C543.775513,364.090576 543.761353,364.389832 543.761353,364.389832 
	C543.761353,364.389832 544.002441,364.002655 544.753174,363.987793 
M685.451416,180.484329 
	C685.451416,180.484329 685.517578,180.450790 685.451416,180.484329 
z"/>
<path fill="#63E2E8" opacity="1.000000" stroke="none" 
	d="
M804.193298,94.012199 
	C804.447998,93.911774 804.654907,93.750206 805.114990,93.184540 
	C805.627869,92.558632 805.839844,92.275688 806.051758,91.992722 
	C821.200806,77.628067 836.247742,63.214336 849.734009,47.171017 
	C858.768616,36.423389 869.097778,26.763842 878.849792,16.619429 
	C880.460693,14.943626 882.081970,13.277776 884.192627,11.257995 
	C890.457886,7.605788 896.228943,4.302896 902.000000,1.000002 
	C902.444458,1.000000 902.888916,1.000000 903.666687,1.000000 
	C908.213989,10.842319 900.426392,14.900614 894.843079,20.039028 
	C884.888428,29.200504 874.659485,38.087700 865.073608,47.620853 
	C847.407715,65.189430 830.609558,83.654388 812.539062,100.785194 
	C795.955078,116.506851 782.121033,134.426804 767.551941,151.838120 
	C749.236938,173.726120 734.020996,197.635132 718.985413,221.750717 
	C715.144104,227.911819 710.557922,233.777145 705.485046,238.968353 
	C693.126770,251.615112 683.067749,265.947632 673.088440,280.425262 
	C668.299194,287.373413 663.152100,294.244568 657.210815,300.195953 
	C641.704529,315.728577 628.366089,332.886780 615.487000,350.617065 
	C608.506348,360.227112 598.474182,367.569214 590.353455,376.424957 
	C586.509216,380.617126 584.221191,386.196777 580.674255,390.712830 
	C577.458374,394.807281 573.483215,398.304016 569.856506,402.077545 
	C566.561096,405.506409 563.284180,408.953125 559.603149,412.796936 
	C556.522583,415.892456 553.837952,418.583038 550.801086,421.054993 
	C547.386230,420.175232 544.319885,419.530304 541.261902,418.847900 
	C538.701782,418.276581 537.352966,417.071991 538.832336,414.280212 
	C539.366760,413.271606 539.646973,412.128296 540.030029,411.034668 
	C540.016968,411.022827 540.031250,411.035217 540.395447,411.051697 
	C543.180847,408.754913 545.602051,406.441620 548.315125,403.953308 
	C550.903809,401.157776 553.204468,398.540527 555.496887,395.916138 
	C561.929688,388.551788 568.276611,381.110138 574.821106,373.846466 
	C578.701599,369.539459 582.978394,365.591919 586.923645,361.340393 
	C594.265503,353.428558 601.758728,345.634674 608.708008,337.386536 
	C618.326477,325.970367 627.358459,314.061523 636.911011,302.587982 
	C644.242737,293.781891 652.321106,285.586029 659.462097,276.635803 
	C666.812500,267.423126 673.056946,257.324432 680.459534,248.157883 
	C690.160095,236.145767 700.999512,225.038284 710.457397,212.849747 
	C719.103577,201.707230 726.177734,189.356445 734.619812,178.041809 
	C756.387085,148.867554 778.826660,120.219803 804.193298,94.012199 
z"/>
<path fill="#5FE1E7" opacity="1.000000" stroke="none" 
	d="
M685.550049,1.000000 
	C687.889099,5.431661 686.796997,9.339810 684.202332,13.190540 
	C669.046631,35.683666 653.594482,57.990383 639.009705,80.849556 
	C631.240784,93.025871 624.538208,105.954742 618.207458,118.959244 
	C609.028503,137.814423 600.535461,157.006607 591.911011,176.127731 
	C583.896179,193.897461 576.640076,211.915833 574.022461,231.473465 
	C573.502991,235.354889 572.216248,239.345566 570.377441,242.804276 
	C557.894043,266.285370 549.727417,291.512543 540.288696,316.225800 
	C532.003357,337.919220 520.897095,358.177338 509.329254,378.252014 
	C503.953247,387.581390 499.815002,397.624023 494.942017,407.990021 
	C493.622589,408.995361 492.384766,409.827606 491.347870,409.626038 
	C487.876282,408.951202 484.476471,407.906860 480.947937,406.758484 
	C480.795074,406.343628 480.743439,406.174286 480.691833,406.004974 
	C480.691833,406.004974 480.806885,405.910065 481.146240,405.727264 
	C484.600830,398.078522 487.743042,390.623596 490.806305,383.136383 
	C491.354126,381.797394 491.575287,380.324799 491.947296,378.913879 
	C491.947296,378.913879 491.989471,378.976532 492.247925,378.955078 
	C492.657501,378.596039 492.808594,378.258423 492.959717,377.920837 
	C492.959717,377.920837 492.986725,377.985077 493.257324,377.895996 
	C493.698730,377.424377 493.869537,377.041870 494.040344,376.659332 
	C496.973511,371.989258 499.906677,367.319183 503.277100,362.144775 
	C504.863068,359.831970 506.229736,358.124725 507.124146,356.198212 
	C511.827881,346.066559 516.412292,335.879517 521.038147,325.711700 
	C529.332214,304.897156 537.512817,284.036407 545.963501,263.285614 
	C550.923523,251.106354 558.328796,239.541519 561.079468,226.925308 
	C566.378540,202.620651 576.165344,180.215164 585.741333,157.596848 
	C586.053223,156.860153 586.113708,156.017029 586.912109,154.806259 
	C587.707520,153.136398 587.882202,151.883774 588.056946,150.631165 
	C588.056946,150.631165 587.973389,150.449783 588.382019,150.255829 
	C592.178467,143.244370 595.635620,136.460297 598.941711,129.603394 
	C610.869019,104.866043 622.463257,79.988747 639.877075,58.346863 
	C647.460693,48.921898 654.001526,38.657887 661.015991,28.774933 
	C661.015991,28.774935 660.975464,28.514462 661.348755,28.207352 
	C666.814697,18.933496 671.907349,9.966750 677.000000,1.000001 
	C679.700012,1.000000 682.400024,1.000000 685.550049,1.000000 
z"/>
<path fill="#63E2E8" opacity="1.000000" stroke="none" 
	d="
M352.062561,775.128296 
	C341.956848,795.342102 325.403595,808.610413 305.908875,819.149719 
	C289.987518,827.757202 273.707031,836.065247 260.467072,848.769714 
	C253.770065,855.195984 247.492584,862.109619 241.486984,869.194153 
	C233.323700,878.824097 224.666504,888.227417 217.879547,898.793274 
	C202.076111,923.395813 181.305923,943.830383 163.126923,966.420105 
	C151.873169,980.404236 141.184982,994.843262 129.941071,1008.835510 
	C125.493729,1014.369812 120.227646,1019.246216 115.167191,1024.711060 
	C109.645073,1025.000000 104.290138,1025.000000 98.467606,1025.000000 
	C100.520912,1021.336060 102.757774,1017.429932 105.627403,1014.063232 
	C110.270546,1008.615845 115.329399,1003.522766 120.825027,997.998047 
	C121.605392,997.119263 121.773460,996.522644 121.941536,995.925964 
	C121.941544,995.925964 121.989082,995.993103 122.313690,995.964600 
	C123.071533,994.933105 123.504761,993.930115 123.937988,992.927185 
	C123.937981,992.927185 123.996773,992.977905 124.240494,992.929688 
	C124.645950,992.558411 124.807693,992.235352 124.969437,991.912231 
	C124.969437,991.912231 124.963493,991.983948 125.300560,991.981812 
	C126.405258,990.627686 127.172890,989.275696 127.940514,987.923645 
	C127.940514,987.923645 127.992805,987.976074 128.230927,987.919678 
	C128.637146,987.547058 128.805252,987.230713 128.973358,986.914429 
	C128.973343,986.914429 128.988373,986.982910 129.247040,986.881348 
	C129.682022,986.408203 129.858337,986.036560 130.034637,985.664917 
	C130.034637,985.664917 129.965729,985.492126 130.298920,985.268311 
	C130.735779,984.671753 130.839462,984.299011 130.943146,983.926331 
	C130.943161,983.926331 130.992203,983.997192 131.260666,983.976868 
	C131.668045,983.611938 131.806976,983.267334 131.945892,982.922729 
	C131.945892,982.922729 131.993484,982.992737 132.257965,982.971680 
	C132.666046,982.607727 132.809631,982.264709 132.953232,981.921753 
	C132.953232,981.921753 132.990097,981.988892 133.245361,981.952148 
	C133.654510,981.583801 133.808365,981.252197 133.962219,980.920593 
	C133.962204,980.920593 133.986603,980.985107 134.257568,980.881104 
	C134.692108,980.386047 134.855682,979.994934 135.019257,979.603882 
	C143.090286,969.465576 151.050018,959.235840 159.273834,949.223022 
	C164.259842,943.152344 169.482803,937.253845 174.898880,931.563049 
	C188.961838,916.786804 201.752792,901.061279 213.066635,884.039307 
	C218.613052,875.694702 225.457870,868.187073 231.978943,860.525208 
	C236.462021,855.257874 241.561203,850.517761 246.099731,845.294128 
	C256.095245,833.789734 268.961456,826.200989 281.806274,818.533264 
	C293.226715,811.715759 304.887939,805.244995 315.899445,797.815735 
	C326.116119,790.922668 335.131653,782.240540 338.887177,770.149475 
	C340.535919,764.841248 343.410980,760.643311 345.777344,755.935425 
	C348.146423,751.221985 350.495331,747.383240 356.819763,746.922363 
	C357.421661,746.863831 357.863373,746.904785 357.911743,747.279663 
	C358.520172,748.818787 358.896820,750.126282 359.673615,751.121338 
	C362.360229,754.563049 364.002197,758.136963 361.576996,762.527649 
	C366.866425,763.877808 371.796051,765.224304 376.776794,766.343201 
	C377.965637,766.610291 379.407532,766.352295 380.592316,765.935669 
	C386.961334,763.695679 386.947113,763.653259 386.984955,770.526001 
	C386.991364,771.687317 387.003601,772.848633 386.986206,774.325439 
	C386.919983,775.060547 386.880707,775.480103 386.490753,775.972351 
	C374.394562,783.177673 364.469574,780.868835 356.370361,769.283691 
	C354.573242,771.721924 353.317871,773.425110 352.062561,775.128296 
z"/>
<path fill="#61E2E7" opacity="1.000000" stroke="none" 
	d="
M252.464645,1025.000000 
	C255.944901,1009.643982 261.583221,995.020569 269.981598,981.470093 
	C283.729553,959.288208 297.605164,937.171631 310.701691,914.606506 
	C315.831146,905.768494 319.674988,896.020325 322.943085,886.296448 
	C332.999207,856.375183 348.815186,829.951355 369.303955,806.080933 
	C375.338776,799.050049 380.439911,791.217712 385.995483,783.394409 
	C386.022095,783.036072 386.032043,783.011230 386.323425,782.835327 
	C388.820648,778.089111 391.026459,773.518677 393.592010,769.025696 
	C397.312653,769.744385 400.673523,770.385681 404.029358,771.380005 
	C404.048981,772.202026 404.073639,772.671021 404.098297,773.140076 
	C402.430664,784.096680 396.126282,792.586609 389.606964,801.077454 
	C379.267365,814.543823 368.335449,827.681396 359.339661,842.015808 
	C351.369537,854.715881 344.472565,868.404846 339.274078,882.460571 
	C329.669098,908.430603 317.130768,932.609070 301.438599,955.358215 
	C295.368561,964.158203 290.656738,973.895020 284.844116,983.698975 
	C284.262634,984.819702 284.163147,985.446594 284.063660,986.073425 
	C284.063690,986.073425 284.009338,986.009277 283.696045,986.034180 
	C274.977142,997.873718 269.290283,1010.901978 266.000000,1025.000000 
	C261.643097,1025.000000 257.286194,1025.000000 252.464645,1025.000000 
z"/>
<path fill="#B1F0F3" opacity="1.000000" stroke="none" 
	d="
M676.583374,1.000001 
	C671.907349,9.966750 666.814697,18.933496 661.422485,28.098091 
	C658.021912,18.970610 662.492188,12.168193 668.570312,5.889085 
	C669.947815,4.466056 671.262146,2.981867 672.302734,1.262918 
	C673.388916,1.000000 674.777771,1.000000 676.583374,1.000001 
z"/>
<path fill="#B1F0F3" opacity="1.000000" stroke="none" 
	d="
M266.333313,1025.000000 
	C269.290283,1010.901978 274.977142,997.873718 283.734863,986.050354 
	C281.569824,992.711853 279.301849,999.490417 276.463989,1006.021362 
	C273.739990,1012.290466 270.425293,1018.302856 267.685089,1024.714111 
	C267.555542,1025.000000 267.111115,1025.000000 266.333313,1025.000000 
z"/>
<path fill="#ADF0F3" opacity="1.000000" stroke="none" 
	d="
M901.531494,1.000002 
	C896.228943,4.302896 890.457886,7.605788 884.343445,10.961090 
	C883.099121,7.898273 882.198242,4.783045 881.148682,1.333909 
	C887.687622,1.000000 894.375305,1.000000 901.531494,1.000002 
z"/>
<path fill="#5573FF" opacity="1.000000" stroke="none" 
	d="
M551.153320,421.273621 
	C553.837952,418.583038 556.522583,415.892456 559.534851,413.149780 
	C562.513123,420.240509 568.955933,423.869019 574.633484,427.700104 
	C586.287048,435.563568 598.805664,442.141479 610.494263,449.957367 
	C622.482117,457.973419 635.343018,465.059387 644.801941,476.304840 
	C655.056702,488.496521 665.472107,500.629395 674.689941,513.589844 
	C680.726807,522.077759 685.087708,531.833984 689.609497,541.303772 
	C695.382690,553.394348 694.628113,566.183533 690.641174,578.421753 
	C684.727478,596.574219 678.875366,614.903137 670.849243,632.157837 
	C665.156738,644.395447 656.527710,655.462830 648.101013,666.181152 
	C638.542236,678.339478 628.555908,690.398865 617.247192,700.872742 
	C607.294128,710.091003 595.847107,718.111145 583.988464,724.745483 
	C571.051819,731.982788 556.812012,736.863647 543.288757,743.093994 
	C538.454041,745.321350 534.182739,748.744080 529.425232,751.172363 
	C521.350159,755.293945 513.093262,759.059448 504.130859,762.933716 
	C492.481537,763.916687 481.614075,764.940552 470.746643,765.964417 
	C470.746643,765.964417 470.400848,766.005371 469.907349,765.673950 
	C464.110138,765.126709 458.782928,765.155396 453.507172,764.648438 
	C438.333069,763.190308 423.179749,761.515686 407.961761,759.570557 
	C404.931305,752.667908 401.409454,752.049194 396.141418,757.078613 
	C395.592041,757.603027 394.698151,757.766663 393.736206,757.919678 
	C393.285919,757.214539 393.063538,756.687317 392.881287,755.762634 
	C390.941864,750.578613 388.962372,745.792053 387.381226,741.023132 
	C395.747559,742.694275 403.653687,744.796082 411.696747,745.905884 
	C427.313416,748.060608 443.060455,749.292664 458.656006,751.573303 
	C481.364349,754.893921 502.550751,751.964905 522.409119,739.641052 
	C532.526184,733.362549 543.472656,728.378601 554.219238,723.170776 
	C561.767761,719.512634 569.989258,717.131042 577.253174,713.018738 
	C599.394104,700.484375 617.466736,683.363831 633.352905,663.454956 
	C652.718628,639.185364 667.590576,613.017273 675.822449,582.825928 
	C680.943176,564.044739 680.534546,546.800720 669.716736,530.326599 
	C666.521362,525.460571 663.566162,520.366028 659.837341,515.934448 
	C649.249146,503.350708 639.719177,489.343323 627.171448,479.075073 
	C611.107910,465.929810 592.265930,456.233429 575.096497,444.363495 
	C566.445007,438.382385 558.842224,430.884308 550.811279,423.719788 
	C550.955933,422.669495 551.054626,421.971588 551.153320,421.273621 
z"/>
<path fill="#A9B8FF" opacity="1.000000" stroke="none" 
	d="
M408.018280,759.926086 
	C423.179749,761.515686 438.333069,763.190308 453.507172,764.648438 
	C458.782928,765.155396 464.110138,765.126709 469.750610,765.598206 
	C461.010895,766.235901 451.937134,766.761108 442.856689,766.933105 
	C438.943726,767.007263 435.016144,766.358887 431.096497,766.023682 
	C421.516785,765.204346 413.099030,768.844360 404.438660,773.002563 
	C404.073639,772.671021 404.048981,772.202026 404.280518,771.126953 
	C405.697235,766.989258 406.857758,763.457703 408.018280,759.926086 
z"/>
<path fill="#A9B8FF" opacity="1.000000" stroke="none" 
	d="
M470.897888,766.304565 
	C481.614075,764.940552 492.481537,763.916687 503.762207,762.946411 
	C495.985474,778.655701 479.462006,777.680664 470.897888,766.304565 
z"/>
<path fill="#B1F0F3" opacity="1.000000" stroke="none" 
	d="
M284.398865,985.955688 
	C284.163147,985.446594 284.262634,984.819702 284.621216,983.972229 
	C284.831604,984.447021 284.782837,985.142456 284.398865,985.955688 
z"/>
<path fill="#5573FF" opacity="1.000000" stroke="none" 
	d="
M357.863373,746.904785 
	C357.863373,746.904785 357.421661,746.863831 357.204041,746.824829 
	C349.040497,742.879395 340.336548,740.011353 333.292694,734.869263 
	C313.252686,720.239624 298.546021,701.508240 292.923431,676.639404 
	C290.207336,664.625854 286.887054,652.740662 284.469574,640.671326 
	C283.252930,634.597229 283.441833,628.241638 283.030518,621.083984 
	C283.033936,609.060181 283.001953,597.965698 282.969971,586.871277 
	C281.515686,565.123535 288.814911,545.420654 297.490082,526.133179 
	C302.332458,515.367065 307.301147,504.583801 313.219971,494.393127 
	C322.174805,478.975128 334.052887,465.768951 346.907654,453.443878 
	C360.310608,440.593323 373.468353,427.388824 389.652039,417.983032 
	C401.164886,411.291870 412.946930,404.495758 426.479095,403.213501 
	C434.431122,402.459961 442.587402,403.852020 450.651093,404.291595 
	C453.632385,404.454102 456.611084,404.663666 459.592072,404.832367 
	C466.334625,405.214020 473.077881,405.583588 480.256348,405.981506 
	C480.743439,406.174286 480.795074,406.343628 480.884644,407.117371 
	C478.594421,411.205994 476.266266,414.690308 473.483612,418.127167 
	C460.390808,417.663513 447.724579,417.626740 435.123871,416.700043 
	C426.466583,416.063324 418.798309,418.081299 411.189545,421.860077 
	C395.124603,429.838470 380.627289,439.891846 367.232239,451.884644 
	C344.928314,471.853638 325.493256,493.654266 313.457520,521.657288 
	C303.715393,544.323914 296.030579,567.011719 295.695282,592.175232 
	C295.294586,622.246155 297.672119,651.621643 308.040588,680.089661 
	C315.290283,699.994629 328.281982,715.230713 346.043701,726.068542 
	C353.585724,730.670471 362.632538,732.806458 370.785706,736.319946 
	C366.408081,739.727417 362.240204,742.878113 358.030121,746.234375 
	C357.987915,746.439941 357.925232,746.855042 357.906921,746.863647 
	C357.888580,746.872314 357.863373,746.904785 357.863373,746.904785 
z"/>
<path fill="#B1F0F3" opacity="1.000000" stroke="none" 
	d="
M660.625305,28.866280 
	C654.001526,38.657887 647.460693,48.921898 639.877075,58.346863 
	C622.463257,79.988747 610.869019,104.866043 598.941711,129.603394 
	C595.635620,136.460297 592.178467,143.244370 588.453857,150.186493 
	C590.178284,141.278885 591.820618,132.125504 594.390381,123.240364 
	C599.303223,106.253899 604.271667,89.254677 610.114319,72.575058 
	C614.835388,59.097210 621.179016,46.233730 631.029358,35.541237 
	C636.384155,29.728634 643.253967,27.733873 650.649109,30.155073 
	C654.439026,31.395908 657.169678,30.332407 660.625305,28.866280 
z"/>
<path fill="#B1F0F3" opacity="1.000000" stroke="none" 
	d="
M491.571808,378.944061 
	C491.575287,380.324799 491.354126,381.797394 490.806305,383.136383 
	C487.743042,390.623596 484.600830,398.078522 481.198486,405.780487 
	C475.640289,392.344147 480.377197,383.087067 491.571808,378.944061 
z"/>
<path fill="#B1F0F3" opacity="1.000000" stroke="none" 
	d="
M520.706299,325.888031 
	C516.412292,335.879517 511.827881,346.066559 507.124146,356.198212 
	C506.229736,358.124725 504.863068,359.831970 503.436676,361.823975 
	C503.769196,359.572235 503.945984,356.913971 505.064209,354.740021 
	C510.020050,345.105530 515.246155,335.610107 520.706299,325.888031 
z"/>
<path fill="#A9B8FF" opacity="1.000000" stroke="none" 
	d="
M282.569336,587.069885 
	C283.001953,597.965698 283.033936,609.060181 283.006927,620.626099 
	C282.617645,620.433655 281.999420,619.769409 282.000031,619.105774 
	C282.009583,608.493286 282.098145,597.880920 282.569336,587.069885 
z"/>
<path fill="#B1F0F3" opacity="1.000000" stroke="none" 
	d="
M127.618011,988.026245 
	C127.172890,989.275696 126.405258,990.627686 125.268677,991.965210 
	C125.698326,990.676697 126.496918,989.402771 127.618011,988.026245 
z"/>
<path fill="#B1F0F3" opacity="1.000000" stroke="none" 
	d="
M123.616478,993.020752 
	C123.504761,993.930115 123.071533,994.933105 122.276764,995.946533 
	C122.375137,995.009399 122.835052,994.061890 123.616478,993.020752 
z"/>
<path fill="#B1F0F3" opacity="1.000000" stroke="none" 
	d="
M587.717773,150.843918 
	C587.882202,151.883774 587.707520,153.136398 587.255066,154.641144 
	C587.111145,153.614410 587.244934,152.335541 587.717773,150.843918 
z"/>
<path fill="#B1F0F3" opacity="1.000000" stroke="none" 
	d="
M121.625763,996.019287 
	C121.773460,996.522644 121.605392,997.119263 121.135422,997.853516 
	C120.992348,997.364929 121.151176,996.738831 121.625763,996.019287 
z"/>
<path fill="#B1F0F3" opacity="1.000000" stroke="none" 
	d="
M134.764847,979.779785 
	C134.855682,979.994934 134.692108,980.386047 134.223206,980.877869 
	C134.115417,980.637634 134.312927,980.296631 134.764847,979.779785 
z"/>
<path fill="#B1F0F3" opacity="1.000000" stroke="none" 
	d="
M133.691071,980.973022 
	C133.808365,981.252197 133.654510,981.583801 133.210632,981.936035 
	C133.087067,981.646301 133.253479,981.335876 133.691071,980.973022 
z"/>
<path fill="#B1F0F3" opacity="1.000000" stroke="none" 
	d="
M132.683258,981.971313 
	C132.809631,982.264709 132.666046,982.607727 132.222305,982.948975 
	C132.085861,982.638428 132.249573,982.329590 132.683258,981.971313 
z"/>
<path fill="#B1F0F3" opacity="1.000000" stroke="none" 
	d="
M131.677597,982.973145 
	C131.806976,983.267334 131.668045,983.611938 131.225769,983.951538 
	C131.084717,983.638794 131.247009,983.331177 131.677597,982.973145 
z"/>
<path fill="#B1F0F3" opacity="1.000000" stroke="none" 
	d="
M130.623901,984.019775 
	C130.839462,984.299011 130.735779,984.671753 130.367767,985.205750 
	C130.170517,984.949158 130.237595,984.531189 130.623901,984.019775 
z"/>
<path fill="#B1F0F3" opacity="1.000000" stroke="none" 
	d="
M129.774139,985.822815 
	C129.858337,986.036560 129.682022,986.408203 129.212021,986.882385 
	C129.116760,986.650208 129.315201,986.315491 129.774139,985.822815 
z"/>
<path fill="#B1F0F3" opacity="1.000000" stroke="none" 
	d="
M128.704010,986.977905 
	C128.805252,987.230713 128.637146,987.547058 128.194000,987.917603 
	C128.090836,987.661621 128.262741,987.351501 128.704010,986.977905 
z"/>
<path fill="#B1F0F3" opacity="1.000000" stroke="none" 
	d="
M493.772339,376.809875 
	C493.869537,377.041870 493.698730,377.424377 493.222900,377.890625 
	C493.113342,377.636353 493.308838,377.298370 493.772339,376.809875 
z"/>
<path fill="#B1F0F3" opacity="1.000000" stroke="none" 
	d="
M124.700333,991.974426 
	C124.807693,992.235352 124.645950,992.558411 124.202133,992.923645 
	C124.090446,992.656067 124.260841,992.346313 124.700333,991.974426 
z"/>
<path fill="#B1F0F3" opacity="1.000000" stroke="none" 
	d="
M492.687378,377.973145 
	C492.808594,378.258423 492.657501,378.596039 492.210876,378.947754 
	C492.081940,378.649750 492.248505,378.337616 492.687378,377.973145 
z"/>
<path fill="#58A9F3" opacity="1.000000" stroke="none" 
	d="
M473.938171,418.174591 
	C476.266266,414.690308 478.594421,411.205994 480.985870,407.362854 
	C484.476471,407.906860 487.876282,408.951202 491.347870,409.626038 
	C492.384766,409.827606 493.622589,408.995361 494.898254,408.361053 
	C501.978180,409.009521 508.921173,409.997223 515.888489,410.764038 
	C516.620850,410.844604 517.496582,409.622742 518.405151,408.636993 
	C518.504456,408.268829 518.809875,408.381927 519.253296,408.566467 
	C526.379272,410.399597 532.933960,413.180481 540.043213,411.046478 
	C539.646973,412.128296 539.366760,413.271606 538.832336,414.280212 
	C537.352966,417.071991 538.701782,418.276581 541.261902,418.847900 
	C544.319885,419.530304 547.386230,420.175232 550.801147,421.055023 
	C551.054626,421.971588 550.955933,422.669495 550.437561,423.683350 
	C546.703064,423.664673 543.388306,423.330109 539.914978,422.673889 
	C538.299194,417.731293 534.803833,420.233643 531.951355,419.941467 
	C520.622925,418.781036 509.260651,417.695312 498.049347,415.774200 
	C493.660278,415.022095 491.923950,416.125977 490.892334,420.288788 
	C489.114685,423.294159 487.979156,426.572266 485.698273,428.483643 
	C483.876984,430.009918 480.325134,430.882080 478.166168,430.164581 
	C476.313812,429.548981 474.956116,426.413879 474.113922,424.123047 
	C473.464783,422.357361 473.954712,420.172852 473.938171,418.174591 
z"/>
<path fill="#000000" opacity="1.000000" stroke="none" 
	d="
M803.724731,42.594364 
	C803.393005,42.965431 803.047668,43.671322 802.731506,43.658501 
	C795.188660,43.352657 787.648926,42.969692 780.108643,42.600761 
	C780.130493,42.013832 780.152283,41.426903 780.174133,40.839977 
	C787.463684,41.224289 794.753174,41.608601 802.678711,42.131199 
	C803.451355,42.377777 803.588074,42.486069 803.724731,42.594364 
z"/>
<path fill="#000000" opacity="1.000000" stroke="none" 
	d="
M803.120117,42.094776 
	C803.481323,41.683502 804.037170,41.446938 804.593018,41.210354 
	C804.444519,41.540115 804.296082,41.869896 803.936157,42.397018 
	C803.588074,42.486069 803.451355,42.377777 803.120117,42.094776 
z"/>
<path fill="#86E9ED" opacity="1.000000" stroke="none" 
	d="
M352.308258,775.365356 
	C353.317871,773.425110 354.573242,771.721924 356.370361,769.283691 
	C364.469574,780.868835 374.394562,783.177673 386.529907,776.375244 
	C386.623840,778.807434 386.327942,780.909363 386.032043,783.011230 
	C386.032043,783.011230 386.022095,783.036072 386.032776,783.049194 
	C385.036285,783.542847 383.865906,783.832214 383.046570,784.532410 
	C371.229126,794.630493 356.626312,790.374207 352.308258,775.365356 
z"/>
<path fill="#ADF0F3" opacity="1.000000" stroke="none" 
	d="
M803.798035,94.005737 
	C778.826660,120.219803 756.387085,148.867554 734.619812,178.041809 
	C726.177734,189.356445 719.103577,201.707230 710.457397,212.849747 
	C700.999512,225.038284 690.160095,236.145767 680.459534,248.157883 
	C673.056946,257.324432 666.812500,267.423126 659.462097,276.635803 
	C652.321106,285.586029 644.242737,293.781891 636.911011,302.587982 
	C627.358459,314.061523 618.326477,325.970367 608.708008,337.386536 
	C601.758728,345.634674 594.265503,353.428558 586.923645,361.340393 
	C582.978394,365.591919 578.701599,369.539459 574.821106,373.846466 
	C568.276611,381.110138 561.929688,388.551788 555.496887,395.916138 
	C553.204468,398.540527 550.903809,401.157776 547.934937,403.841370 
	C545.186096,403.571075 543.109253,403.237671 541.032471,402.904266 
	C542.892029,399.278809 544.177673,395.179291 546.711853,392.111053 
	C556.955688,379.708435 567.284302,367.349701 578.128357,355.473938 
	C607.812256,322.965790 637.038208,290.069397 660.646729,252.750870 
	C674.408997,230.996552 686.657410,208.283813 700.445068,186.546585 
	C707.515808,175.399155 716.368591,165.365860 724.598633,154.973679 
	C736.628357,139.783569 750.343689,126.342796 766.703552,115.804527 
	C777.173584,109.060249 787.740723,102.465431 798.328003,95.906296 
	C799.834961,94.972679 801.702271,94.620544 803.798035,94.005737 
z"/>
<path fill="#ADF0F3" opacity="1.000000" stroke="none" 
	d="
M543.997559,363.997559 
	C544.830078,361.683716 545.436279,359.255676 546.535828,357.076599 
	C550.499695,349.221344 554.756592,341.512390 558.638550,333.618225 
	C560.349304,330.139374 561.904663,327.485565 566.586914,327.717499 
	C569.935120,327.883362 573.353699,326.630371 578.089355,325.763672 
	C575.981934,328.741333 574.499634,330.744507 573.112793,332.811707 
	C568.402039,339.833588 563.788574,346.921600 559.013916,353.899475 
	C555.531067,358.989502 550.920105,362.623566 544.376587,363.993896 
	C544.000000,364.000000 543.997559,363.997559 543.997559,363.997559 
z"/>
<path fill="#ADF0F3" opacity="1.000000" stroke="none" 
	d="
M687.002441,178.001038 
	C694.139893,167.031906 700.700256,155.626358 708.574829,145.214767 
	C716.655762,134.530365 726.167908,124.939873 734.766907,114.631454 
	C739.540710,108.908585 743.669861,102.651787 748.220703,96.736580 
	C749.409241,95.191727 751.088501,94.024452 752.542419,92.683769 
	C752.994141,93.014404 753.445862,93.345039 753.897644,93.675674 
	C753.476013,94.720207 753.261475,95.922997 752.602173,96.785950 
	C738.711853,114.967476 724.740601,133.087189 710.855469,151.272659 
	C705.216431,158.658249 699.884338,166.282776 694.100037,173.549896 
	C692.564819,175.478714 689.872314,176.486435 687.355591,177.958542 
	C687.000000,178.000000 687.002441,178.001038 687.002441,178.001038 
z"/>
<path fill="#5BC5ED" opacity="1.000000" stroke="none" 
	d="
M540.030090,411.034668 
	C532.933960,413.180481 526.379272,410.399597 519.415649,408.579254 
	C525.118835,404.074585 531.895813,402.689270 539.577637,403.496216 
	C540.022949,406.321381 540.027100,408.678284 540.031250,411.035217 
	C540.031250,411.035217 540.016968,411.022827 540.030090,411.034668 
z"/>
<path fill="#58A9F3" opacity="1.000000" stroke="none" 
	d="
M540.395386,411.051697 
	C540.027100,408.678284 540.022949,406.321381 540.029297,403.529053 
	C540.205933,403.065704 540.371948,403.037750 540.785278,402.957031 
	C543.109253,403.237671 545.186096,403.571075 547.643066,404.016418 
	C545.602051,406.441620 543.180847,408.754913 540.395386,411.051697 
z"/>
<path fill="#ADF0F3" opacity="1.000000" stroke="none" 
	d="
M805.819580,92.133530 
	C805.839844,92.275688 805.627869,92.558632 805.203796,93.006386 
	C805.190247,92.872231 805.388794,92.573280 805.819580,92.133530 
z"/>
<path fill="#ADF0F3" opacity="1.000000" stroke="none" 
	d="
M686.999634,177.999237 
	C686.999268,177.998489 686.768311,178.404968 686.768311,178.404968 
	C686.768311,178.404968 686.776978,178.100189 686.889709,178.050613 
	C687.002441,178.001038 687.000000,178.000000 686.999634,177.999237 
z"/>
<path fill="#ADF0F3" opacity="1.000000" stroke="none" 
	d="
M685.484497,180.467560 
	C685.517578,180.450790 685.451416,180.484329 685.484497,180.467560 
z"/>
<path fill="#ADF0F3" opacity="1.000000" stroke="none" 
	d="
M544.001221,364.001343 
	C544.002441,364.002655 543.761353,364.389832 543.761353,364.389832 
	C543.761353,364.389832 543.775513,364.090576 543.886536,364.044067 
	C543.997559,363.997559 544.000000,364.000000 544.001221,364.001343 
z"/>
<path fill="#86E9ED" opacity="1.000000" stroke="none" 
	d="
M392.841187,756.160156 
	C393.063538,756.687317 393.285919,757.214539 393.739380,758.341919 
	C393.630524,761.940369 393.290588,764.938660 392.589478,767.952393 
	C390.489899,769.981812 388.751495,771.995911 387.013123,774.009949 
	C387.003601,772.848633 386.991364,771.687317 386.984955,770.526001 
	C386.947113,763.653259 386.961334,763.695679 380.592316,765.935669 
	C379.407532,766.352295 377.965637,766.610291 376.776794,766.343201 
	C371.796051,765.224304 366.866425,763.877808 361.576996,762.527649 
	C364.002197,758.136963 362.360229,754.563049 359.673615,751.121338 
	C358.896820,750.126282 358.520172,748.818787 357.911743,747.279663 
	C357.863373,746.904785 357.888580,746.872314 358.163971,747.007812 
	C358.960815,747.401611 359.482269,747.660034 360.338806,747.926270 
	C361.120056,747.913757 361.566223,747.893433 362.258942,747.880859 
	C362.505524,747.888611 362.996063,747.835510 363.325867,747.867432 
	C364.097015,747.916931 364.538391,747.934448 365.226257,748.217163 
	C370.642609,750.355225 375.812408,752.227966 380.773041,754.314575 
	C379.685577,754.824036 378.807312,755.119690 377.841675,755.444763 
	C380.486603,757.732117 382.981567,759.889832 385.591309,762.146790 
	C385.746704,761.527893 385.953857,761.080750 385.954651,760.633240 
	C385.957703,758.842834 385.896698,757.052368 386.212036,755.250366 
	C387.709961,755.495361 388.855225,755.751892 390.356293,756.034546 
	C391.421783,756.093872 392.131470,756.127014 392.841187,756.160156 
z"/>
<path fill="#AEF0F3" opacity="1.000000" stroke="none" 
	d="
M386.986206,774.325439 
	C388.751495,771.995911 390.489899,769.981812 392.664368,768.204468 
	C393.144379,768.610168 393.188324,768.779236 393.232269,768.948303 
	C391.026459,773.518677 388.820648,778.089111 386.323425,782.835327 
	C386.327942,780.909363 386.623840,778.807434 386.880554,776.302612 
	C386.880707,775.480103 386.919983,775.060547 386.986206,774.325439 
z"/>
<path fill="#58A9F3" opacity="1.000000" stroke="none" 
	d="
M393.592010,769.025696 
	C393.188324,768.779236 393.144379,768.610168 393.025513,768.189026 
	C393.290588,764.938660 393.630524,761.940369 393.967285,758.519897 
	C394.698151,757.766663 395.592041,757.603027 396.141418,757.078613 
	C401.409454,752.049194 404.931305,752.667908 407.961761,759.570557 
	C406.857758,763.457703 405.697235,766.989258 404.285583,770.773926 
	C400.673523,770.385681 397.312653,769.744385 393.592010,769.025696 
z"/>
<path fill="#A9B8FF" opacity="1.000000" stroke="none" 
	d="
M473.483643,418.127167 
	C473.954712,420.172852 473.464783,422.357361 474.113922,424.123047 
	C474.956116,426.413879 476.313812,429.548981 478.166168,430.164581 
	C480.325134,430.882080 483.876984,430.009918 485.698273,428.483643 
	C487.979156,426.572266 489.114685,423.294159 491.318665,420.302307 
	C501.567566,420.927734 511.228973,422.051788 520.921875,422.716644 
	C527.282166,423.152954 533.688049,422.925659 540.073486,422.995544 
	C543.388306,423.330109 546.703064,423.664673 550.391602,424.035706 
	C558.842224,430.884308 566.445007,438.382385 575.096497,444.363495 
	C592.265930,456.233429 611.107910,465.929810 627.171448,479.075073 
	C639.719177,489.343323 649.249146,503.350708 659.837341,515.934448 
	C663.566162,520.366028 666.521362,525.460571 669.716736,530.326599 
	C680.534546,546.800720 680.943176,564.044739 675.822449,582.825928 
	C667.590576,613.017273 652.718628,639.185364 633.352905,663.454956 
	C617.466736,683.363831 599.394104,700.484375 577.253174,713.018738 
	C569.989258,717.131042 561.767761,719.512634 554.219238,723.170776 
	C543.472656,728.378601 532.526184,733.362549 522.409119,739.641052 
	C502.550751,751.964905 481.364349,754.893921 458.656006,751.573303 
	C443.060455,749.292664 427.313416,748.060608 411.696747,745.905884 
	C403.653687,744.796082 395.747559,742.694275 387.130524,740.885742 
	C385.984680,740.446716 385.487854,740.162537 384.921082,739.543701 
	C382.023407,735.382568 378.599548,733.611450 373.584961,736.050659 
	C372.475006,736.056030 371.735199,736.059631 370.995422,736.063171 
	C362.632538,732.806458 353.585724,730.670471 346.043701,726.068542 
	C328.281982,715.230713 315.290283,699.994629 308.040588,680.089661 
	C297.672119,651.621643 295.294586,622.246155 295.695282,592.175232 
	C296.030579,567.011719 303.715393,544.323914 313.457520,521.657288 
	C325.493256,493.654266 344.928314,471.853638 367.232239,451.884644 
	C380.627289,439.891846 395.124603,429.838470 411.189545,421.860077 
	C418.798309,418.081299 426.466583,416.063324 435.123871,416.700043 
	C447.724579,417.626740 460.390808,417.663513 473.483643,418.127167 
M425.042023,691.453552 
	C437.887177,693.754456 450.734833,695.320312 463.404266,690.607910 
	C474.007751,686.663940 484.561127,682.585022 495.131226,678.551636 
	C499.645142,676.829163 503.958191,675.338806 505.757935,669.755981 
	C507.023376,665.830566 507.005829,662.864685 503.897156,660.413757 
	C500.738770,657.923462 497.448090,658.243286 494.470245,661.099915 
	C493.305695,662.217102 492.163788,663.541199 490.745392,664.180481 
	C482.249664,668.009216 473.903778,672.390503 465.061615,675.165161 
	C457.102966,677.662598 448.460693,680.032654 440.313141,679.500610 
	C413.490784,677.748901 386.758484,674.629578 359.985748,672.097107 
	C354.832336,671.609680 351.640228,673.636353 351.135040,677.359314 
	C350.658417,680.872192 353.423767,684.058655 358.274170,684.823364 
	C364.175446,685.753662 370.135620,686.354797 376.088074,686.907532 
	C392.122070,688.396545 408.165497,689.784119 425.042023,691.453552 
M382.414948,569.987427 
	C386.575897,572.405884 390.793762,574.732422 394.883484,577.265869 
	C400.111206,580.504272 405.017090,584.365601 410.519806,587.002380 
	C412.515106,587.958496 416.492523,586.970764 418.386871,585.425293 
	C421.147217,583.173340 420.533600,579.561829 418.141571,576.934692 
	C416.488373,575.119080 414.485107,573.428162 412.314453,572.310120 
	C400.925385,566.443909 389.457855,560.727722 377.962067,555.072205 
	C374.314728,553.277832 371.262238,554.717773 369.602112,558.075378 
	C367.981842,561.352356 369.138123,564.431580 372.414917,566.097107 
	C375.362762,567.595581 378.581085,568.561951 382.414948,569.987427 
M534.006653,562.609985 
	C536.866455,557.226562 535.306030,552.665222 529.525208,552.722961 
	C523.297974,552.785156 516.328003,553.727356 511.065735,556.719299 
	C503.995209,560.739319 498.130798,566.958679 491.988098,572.499451 
	C488.937592,575.251038 488.317688,578.883362 491.146027,582.265015 
	C493.747986,585.376038 497.810516,585.311584 501.309845,582.160828 
	C504.513947,579.275879 507.563324,576.207825 510.548401,573.093445 
	C515.460815,567.968323 521.080566,564.674011 528.488464,564.904297 
	C530.125732,564.955200 531.801147,563.777832 534.006653,562.609985 
M530.719177,595.118896 
	C533.822266,596.667297 537.249451,597.040588 539.080383,593.889832 
	C540.131287,592.081360 540.003967,588.652893 538.948242,586.772705 
	C537.328003,583.887146 534.128296,583.390503 531.189087,585.497253 
	C527.577942,588.085632 527.915894,591.261536 530.719177,595.118896 
M390.153595,597.779297 
	C390.682922,595.065918 391.712463,592.308594 391.479584,589.662292 
	C391.394073,588.690735 388.340424,587.338135 386.607513,587.287109 
	C382.949036,587.179321 380.534546,590.505493 381.118561,594.052063 
	C381.716888,597.685608 384.954651,599.289551 390.153595,597.779297 
M640.054565,587.523560 
	C638.670410,592.986938 637.286255,598.450378 635.902100,603.913757 
	C636.748108,604.118286 637.594055,604.322815 638.440063,604.527344 
	C640.493286,595.705139 642.546448,586.882874 644.599670,578.060669 
	C644.309082,578.018005 644.018494,577.975342 643.727844,577.932678 
	C642.511292,580.859497 641.294739,583.786316 640.054565,587.523560 
z"/>
<path fill="#58A9F3" opacity="1.000000" stroke="none" 
	d="
M370.785706,736.319946 
	C371.735199,736.059631 372.475006,736.056030 373.829163,736.305298 
	C377.959351,737.664856 381.475189,738.771606 384.991028,739.878418 
	C385.487854,740.162537 385.984680,740.446716 386.732178,740.868164 
	C388.962372,745.792053 390.941864,750.578613 392.881287,755.762634 
	C392.131470,756.127014 391.421783,756.093872 390.307922,755.687256 
	C387.212067,752.297485 384.950867,748.672241 381.734436,746.398010 
	C375.961487,742.316223 368.553406,743.373291 364.979736,747.952026 
	C364.538391,747.934448 364.097015,747.916931 363.220520,747.753296 
	C362.463135,747.461487 362.205444,747.550110 362.012360,747.873108 
	C361.566223,747.893433 361.120056,747.913757 360.275452,747.634399 
	C359.275421,746.899414 358.673859,746.464111 358.072327,746.028809 
	C362.240204,742.878113 366.408081,739.727417 370.785706,736.319946 
z"/>
<path fill="#63E2E8" opacity="1.000000" stroke="none" 
	d="
M358.030090,746.234375 
	C358.673859,746.464111 359.275421,746.899414 359.940338,747.626526 
	C359.482269,747.660034 358.960815,747.401611 358.182312,746.999146 
	C357.925232,746.855042 357.987915,746.439941 358.030090,746.234375 
z"/>
<path fill="#5573FF" opacity="1.000000" stroke="none" 
	d="
M539.914978,422.673889 
	C533.688049,422.925659 527.282166,423.152954 520.921875,422.716644 
	C511.228973,422.051788 501.567566,420.927734 491.466431,419.985168 
	C491.923950,416.125977 493.660278,415.022095 498.049347,415.774200 
	C509.260651,417.695312 520.622925,418.781036 531.951355,419.941467 
	C534.803833,420.233643 538.299194,417.731293 539.914978,422.673889 
z"/>
<path fill="#5BC5ED" opacity="1.000000" stroke="none" 
	d="
M365.226257,748.217224 
	C368.553406,743.373291 375.961487,742.316223 381.734436,746.398010 
	C384.950867,748.672241 387.212067,752.297485 389.952148,755.661133 
	C388.855225,755.751892 387.709961,755.495361 385.875305,755.123535 
	C383.784729,754.705688 382.383484,754.403198 380.982239,754.100708 
	C375.812408,752.227966 370.642609,750.355225 365.226257,748.217224 
z"/>
<path fill="#ADF0F3" opacity="1.000000" stroke="none" 
	d="
M380.773041,754.314514 
	C382.383484,754.403198 383.784729,754.705688 385.522705,755.135071 
	C385.896698,757.052368 385.957703,758.842834 385.954651,760.633240 
	C385.953857,761.080750 385.746704,761.527893 385.591309,762.146790 
	C382.981567,759.889832 380.486603,757.732117 377.841675,755.444763 
	C378.807312,755.119690 379.685577,754.824036 380.773041,754.314514 
z"/>
<path fill="#5BC5ED" opacity="1.000000" stroke="none" 
	d="
M362.258942,747.880859 
	C362.205444,747.550110 362.463135,747.461487 362.890717,747.721313 
	C362.996063,747.835510 362.505524,747.888611 362.258942,747.880859 
z"/>
<path fill="#5573FF" opacity="1.000000" stroke="none" 
	d="
M424.623596,691.332764 
	C408.165497,689.784119 392.122070,688.396545 376.088074,686.907532 
	C370.135620,686.354797 364.175446,685.753662 358.274170,684.823364 
	C353.423767,684.058655 350.658417,680.872192 351.135040,677.359314 
	C351.640228,673.636353 354.832336,671.609680 359.985748,672.097107 
	C386.758484,674.629578 413.490784,677.748901 440.313141,679.500610 
	C448.460693,680.032654 457.102966,677.662598 465.061615,675.165161 
	C473.903778,672.390503 482.249664,668.009216 490.745392,664.180481 
	C492.163788,663.541199 493.305695,662.217102 494.470245,661.099915 
	C497.448090,658.243286 500.738770,657.923462 503.897156,660.413757 
	C507.005829,662.864685 507.023376,665.830566 505.757935,669.755981 
	C503.958191,675.338806 499.645142,676.829163 495.131226,678.551636 
	C484.561127,682.585022 474.007751,686.663940 463.404266,690.607910 
	C450.734833,695.320312 437.887177,693.754456 424.623596,691.332764 
z"/>
<path fill="#5573FF" opacity="1.000000" stroke="none" 
	d="
M382.047546,569.875244 
	C378.581085,568.561951 375.362762,567.595581 372.414917,566.097107 
	C369.138123,564.431580 367.981842,561.352356 369.602112,558.075378 
	C371.262238,554.717773 374.314728,553.277832 377.962067,555.072205 
	C389.457855,560.727722 400.925385,566.443909 412.314453,572.310120 
	C414.485107,573.428162 416.488373,575.119080 418.141571,576.934692 
	C420.533600,579.561829 421.147217,583.173340 418.386871,585.425293 
	C416.492523,586.970764 412.515106,587.958496 410.519806,587.002380 
	C405.017090,584.365601 400.111206,580.504272 394.883484,577.265869 
	C390.793762,574.732422 386.575897,572.405884 382.047546,569.875244 
z"/>
<path fill="#5573FF" opacity="1.000000" stroke="none" 
	d="
M533.732788,562.888062 
	C531.801147,563.777832 530.125732,564.955200 528.488464,564.904297 
	C521.080566,564.674011 515.460815,567.968323 510.548401,573.093445 
	C507.563324,576.207825 504.513947,579.275879 501.309845,582.160828 
	C497.810516,585.311584 493.747986,585.376038 491.146027,582.265015 
	C488.317688,578.883362 488.937592,575.251038 491.988098,572.499451 
	C498.130798,566.958679 503.995209,560.739319 511.065735,556.719299 
	C516.328003,553.727356 523.297974,552.785156 529.525208,552.722961 
	C535.306030,552.665222 536.866455,557.226562 533.732788,562.888062 
z"/>
<path fill="#5573FF" opacity="1.000000" stroke="none" 
	d="
M530.433105,594.854065 
	C527.915894,591.261536 527.577942,588.085632 531.189087,585.497253 
	C534.128296,583.390503 537.328003,583.887146 538.948242,586.772705 
	C540.003967,588.652893 540.131287,592.081360 539.080383,593.889832 
	C537.249451,597.040588 533.822266,596.667297 530.433105,594.854065 
z"/>
<path fill="#5573FF" opacity="1.000000" stroke="none" 
	d="
M389.840271,597.998413 
	C384.954651,599.289551 381.716888,597.685608 381.118561,594.052063 
	C380.534546,590.505493 382.949036,587.179321 386.607513,587.287109 
	C388.340424,587.338135 391.394073,588.690735 391.479584,589.662292 
	C391.712463,592.308594 390.682922,595.065918 389.840271,597.998413 
z"/>
<path fill="#000000" opacity="1.000000" stroke="none" 
	d="
M640.066406,587.118347 
	C641.294739,583.786316 642.511292,580.859497 643.727844,577.932678 
	C644.018494,577.975342 644.309082,578.018005 644.599670,578.060669 
	C642.546448,586.882874 640.493286,595.705139 638.440063,604.527344 
	C637.594055,604.322815 636.748108,604.118286 635.902100,603.913757 
	C637.286255,598.450378 638.670410,592.986938 640.066406,587.118347 
z"/>
<path fill="#86E9ED" opacity="1.000000" stroke="none" 
	d="
M384.921082,739.543701 
	C381.475189,738.771606 377.959351,737.664856 374.199310,736.303467 
	C378.599548,733.611450 382.023407,735.382568 384.921082,739.543701 
z"/>
</svg>